<mxfile host="app.diagrams.net" modified="2022-12-19T06:59:19.303Z" agent="5.0 (X11; Ubuntu)" etag="bw7X5JcKFIF_mP_CX1Q5" version="20.6.2" type="github">
  <diagram id="FLS_JihNecs1xYUwp_l0" name="Page-1">
    <mxGraphModel dx="1422" dy="905" grid="1" gridSize="10" guides="1" tooltips="1" connect="1" arrows="1" fold="1" page="0" pageScale="1" pageWidth="850" pageHeight="1100" math="0" shadow="0">
      <root>
        <mxCell id="0" />
        <mxCell id="1" parent="0" />
        <mxCell id="-2vziXaGdaKvO8hJ6WF9-19" style="edgeStyle=orthogonalEdgeStyle;rounded=0;orthogonalLoop=1;jettySize=auto;html=1;exitX=1;exitY=0.5;exitDx=0;exitDy=0;entryX=0;entryY=0.5;entryDx=0;entryDy=0;fontSize=20;" parent="1" source="-2vziXaGdaKvO8hJ6WF9-1" target="-2vziXaGdaKvO8hJ6WF9-10" edge="1">
          <mxGeometry relative="1" as="geometry" />
        </mxCell>
        <mxCell id="-2vziXaGdaKvO8hJ6WF9-1" value="" style="rounded=1;whiteSpace=wrap;html=1;fillColor=#dae8fc;strokeColor=#6c8ebf;" parent="1" vertex="1">
          <mxGeometry x="110" y="150" width="90" height="60" as="geometry" />
        </mxCell>
        <mxCell id="-2vziXaGdaKvO8hJ6WF9-3" value="" style="edgeStyle=orthogonalEdgeStyle;rounded=0;orthogonalLoop=1;jettySize=auto;html=1;" parent="1" source="-2vziXaGdaKvO8hJ6WF9-2" target="-2vziXaGdaKvO8hJ6WF9-1" edge="1">
          <mxGeometry relative="1" as="geometry" />
        </mxCell>
        <mxCell id="-2vziXaGdaKvO8hJ6WF9-2" value="&lt;font style=&quot;font-size: 20px;&quot;&gt;Tôi&lt;/font&gt;" style="text;html=1;strokeColor=none;fillColor=none;align=center;verticalAlign=middle;whiteSpace=wrap;rounded=0;" parent="1" vertex="1">
          <mxGeometry x="125" y="240" width="60" height="30" as="geometry" />
        </mxCell>
        <mxCell id="-2vziXaGdaKvO8hJ6WF9-20" value="" style="edgeStyle=orthogonalEdgeStyle;rounded=0;orthogonalLoop=1;jettySize=auto;html=1;fontSize=20;" parent="1" source="-2vziXaGdaKvO8hJ6WF9-10" target="-2vziXaGdaKvO8hJ6WF9-13" edge="1">
          <mxGeometry relative="1" as="geometry" />
        </mxCell>
        <mxCell id="-2vziXaGdaKvO8hJ6WF9-10" value="" style="rounded=1;whiteSpace=wrap;html=1;fillColor=#dae8fc;strokeColor=#6c8ebf;" parent="1" vertex="1">
          <mxGeometry x="230" y="150" width="90" height="60" as="geometry" />
        </mxCell>
        <mxCell id="-2vziXaGdaKvO8hJ6WF9-11" value="" style="edgeStyle=orthogonalEdgeStyle;rounded=0;orthogonalLoop=1;jettySize=auto;html=1;" parent="1" source="-2vziXaGdaKvO8hJ6WF9-12" target="-2vziXaGdaKvO8hJ6WF9-10" edge="1">
          <mxGeometry relative="1" as="geometry" />
        </mxCell>
        <mxCell id="-2vziXaGdaKvO8hJ6WF9-12" value="&lt;font style=&quot;font-size: 20px;&quot;&gt;đi&lt;/font&gt;" style="text;html=1;strokeColor=none;fillColor=none;align=center;verticalAlign=middle;whiteSpace=wrap;rounded=0;" parent="1" vertex="1">
          <mxGeometry x="245" y="240" width="60" height="30" as="geometry" />
        </mxCell>
        <mxCell id="-2vziXaGdaKvO8hJ6WF9-21" value="" style="edgeStyle=orthogonalEdgeStyle;rounded=0;orthogonalLoop=1;jettySize=auto;html=1;fontSize=20;" parent="1" source="-2vziXaGdaKvO8hJ6WF9-13" target="-2vziXaGdaKvO8hJ6WF9-16" edge="1">
          <mxGeometry relative="1" as="geometry" />
        </mxCell>
        <mxCell id="-2vziXaGdaKvO8hJ6WF9-13" value="" style="rounded=1;whiteSpace=wrap;html=1;fillColor=#dae8fc;strokeColor=#6c8ebf;" parent="1" vertex="1">
          <mxGeometry x="350" y="150" width="90" height="60" as="geometry" />
        </mxCell>
        <mxCell id="-2vziXaGdaKvO8hJ6WF9-14" value="" style="edgeStyle=orthogonalEdgeStyle;rounded=0;orthogonalLoop=1;jettySize=auto;html=1;" parent="1" source="-2vziXaGdaKvO8hJ6WF9-15" target="-2vziXaGdaKvO8hJ6WF9-13" edge="1">
          <mxGeometry relative="1" as="geometry" />
        </mxCell>
        <mxCell id="-2vziXaGdaKvO8hJ6WF9-15" value="&lt;font style=&quot;font-size: 20px;&quot;&gt;chơi&lt;/font&gt;" style="text;html=1;strokeColor=none;fillColor=none;align=center;verticalAlign=middle;whiteSpace=wrap;rounded=0;" parent="1" vertex="1">
          <mxGeometry x="365" y="240" width="60" height="30" as="geometry" />
        </mxCell>
        <mxCell id="-2vziXaGdaKvO8hJ6WF9-37" value="" style="edgeStyle=orthogonalEdgeStyle;rounded=0;orthogonalLoop=1;jettySize=auto;html=1;fontSize=20;" parent="1" source="-2vziXaGdaKvO8hJ6WF9-16" target="-2vziXaGdaKvO8hJ6WF9-23" edge="1">
          <mxGeometry relative="1" as="geometry" />
        </mxCell>
        <mxCell id="-2vziXaGdaKvO8hJ6WF9-16" value="" style="rounded=1;whiteSpace=wrap;html=1;fillColor=#dae8fc;strokeColor=#6c8ebf;" parent="1" vertex="1">
          <mxGeometry x="470" y="150" width="90" height="60" as="geometry" />
        </mxCell>
        <mxCell id="-2vziXaGdaKvO8hJ6WF9-17" value="" style="edgeStyle=orthogonalEdgeStyle;rounded=0;orthogonalLoop=1;jettySize=auto;html=1;" parent="1" source="-2vziXaGdaKvO8hJ6WF9-18" target="-2vziXaGdaKvO8hJ6WF9-16" edge="1">
          <mxGeometry relative="1" as="geometry" />
        </mxCell>
        <mxCell id="-2vziXaGdaKvO8hJ6WF9-18" value="&lt;font style=&quot;font-size: 20px;&quot;&gt;&amp;lt;eos&amp;gt;&lt;/font&gt;" style="text;html=1;strokeColor=none;fillColor=none;align=center;verticalAlign=middle;whiteSpace=wrap;rounded=0;" parent="1" vertex="1">
          <mxGeometry x="485" y="240" width="60" height="30" as="geometry" />
        </mxCell>
        <mxCell id="-2vziXaGdaKvO8hJ6WF9-22" style="edgeStyle=orthogonalEdgeStyle;rounded=0;orthogonalLoop=1;jettySize=auto;html=1;exitX=1;exitY=0.5;exitDx=0;exitDy=0;entryX=0;entryY=0.5;entryDx=0;entryDy=0;fontSize=20;" parent="1" source="-2vziXaGdaKvO8hJ6WF9-23" target="-2vziXaGdaKvO8hJ6WF9-27" edge="1">
          <mxGeometry relative="1" as="geometry" />
        </mxCell>
        <mxCell id="-2vziXaGdaKvO8hJ6WF9-43" value="" style="edgeStyle=orthogonalEdgeStyle;rounded=0;orthogonalLoop=1;jettySize=auto;html=1;fontSize=20;" parent="1" source="-2vziXaGdaKvO8hJ6WF9-23" target="-2vziXaGdaKvO8hJ6WF9-38" edge="1">
          <mxGeometry relative="1" as="geometry" />
        </mxCell>
        <mxCell id="-2vziXaGdaKvO8hJ6WF9-23" value="" style="rounded=1;whiteSpace=wrap;html=1;fillColor=#ffe6cc;strokeColor=#d79b00;" parent="1" vertex="1">
          <mxGeometry x="600" y="150" width="90" height="60" as="geometry" />
        </mxCell>
        <mxCell id="-2vziXaGdaKvO8hJ6WF9-24" value="" style="edgeStyle=orthogonalEdgeStyle;rounded=0;orthogonalLoop=1;jettySize=auto;html=1;" parent="1" source="-2vziXaGdaKvO8hJ6WF9-25" target="-2vziXaGdaKvO8hJ6WF9-23" edge="1">
          <mxGeometry relative="1" as="geometry" />
        </mxCell>
        <mxCell id="-2vziXaGdaKvO8hJ6WF9-25" value="&lt;font style=&quot;font-size: 20px;&quot;&gt;&amp;lt;bos&amp;gt;&lt;/font&gt;" style="text;html=1;strokeColor=none;fillColor=none;align=center;verticalAlign=middle;whiteSpace=wrap;rounded=0;" parent="1" vertex="1">
          <mxGeometry x="615" y="240" width="60" height="30" as="geometry" />
        </mxCell>
        <mxCell id="-2vziXaGdaKvO8hJ6WF9-26" value="" style="edgeStyle=orthogonalEdgeStyle;rounded=0;orthogonalLoop=1;jettySize=auto;html=1;fontSize=20;" parent="1" source="-2vziXaGdaKvO8hJ6WF9-27" target="-2vziXaGdaKvO8hJ6WF9-31" edge="1">
          <mxGeometry relative="1" as="geometry" />
        </mxCell>
        <mxCell id="-2vziXaGdaKvO8hJ6WF9-44" value="" style="edgeStyle=orthogonalEdgeStyle;rounded=0;orthogonalLoop=1;jettySize=auto;html=1;fontSize=20;" parent="1" source="-2vziXaGdaKvO8hJ6WF9-27" target="-2vziXaGdaKvO8hJ6WF9-40" edge="1">
          <mxGeometry relative="1" as="geometry" />
        </mxCell>
        <mxCell id="-2vziXaGdaKvO8hJ6WF9-27" value="" style="rounded=1;whiteSpace=wrap;html=1;fillColor=#ffe6cc;strokeColor=#d79b00;" parent="1" vertex="1">
          <mxGeometry x="720" y="150" width="90" height="60" as="geometry" />
        </mxCell>
        <mxCell id="-2vziXaGdaKvO8hJ6WF9-28" value="" style="edgeStyle=orthogonalEdgeStyle;rounded=0;orthogonalLoop=1;jettySize=auto;html=1;" parent="1" source="-2vziXaGdaKvO8hJ6WF9-29" target="-2vziXaGdaKvO8hJ6WF9-27" edge="1">
          <mxGeometry relative="1" as="geometry" />
        </mxCell>
        <mxCell id="-2vziXaGdaKvO8hJ6WF9-29" value="&lt;font style=&quot;font-size: 20px;&quot;&gt;I&lt;/font&gt;" style="text;html=1;strokeColor=none;fillColor=none;align=center;verticalAlign=middle;whiteSpace=wrap;rounded=0;" parent="1" vertex="1">
          <mxGeometry x="735" y="240" width="60" height="30" as="geometry" />
        </mxCell>
        <mxCell id="-2vziXaGdaKvO8hJ6WF9-30" value="" style="edgeStyle=orthogonalEdgeStyle;rounded=0;orthogonalLoop=1;jettySize=auto;html=1;fontSize=20;" parent="1" source="-2vziXaGdaKvO8hJ6WF9-31" target="-2vziXaGdaKvO8hJ6WF9-34" edge="1">
          <mxGeometry relative="1" as="geometry" />
        </mxCell>
        <mxCell id="-2vziXaGdaKvO8hJ6WF9-45" value="" style="edgeStyle=orthogonalEdgeStyle;rounded=0;orthogonalLoop=1;jettySize=auto;html=1;fontSize=20;" parent="1" source="-2vziXaGdaKvO8hJ6WF9-31" target="-2vziXaGdaKvO8hJ6WF9-41" edge="1">
          <mxGeometry relative="1" as="geometry" />
        </mxCell>
        <mxCell id="-2vziXaGdaKvO8hJ6WF9-31" value="" style="rounded=1;whiteSpace=wrap;html=1;fillColor=#ffe6cc;strokeColor=#d79b00;" parent="1" vertex="1">
          <mxGeometry x="840" y="150" width="90" height="60" as="geometry" />
        </mxCell>
        <mxCell id="-2vziXaGdaKvO8hJ6WF9-32" value="" style="edgeStyle=orthogonalEdgeStyle;rounded=0;orthogonalLoop=1;jettySize=auto;html=1;" parent="1" source="-2vziXaGdaKvO8hJ6WF9-33" target="-2vziXaGdaKvO8hJ6WF9-31" edge="1">
          <mxGeometry relative="1" as="geometry" />
        </mxCell>
        <mxCell id="-2vziXaGdaKvO8hJ6WF9-33" value="&lt;font style=&quot;font-size: 20px;&quot;&gt;go&lt;/font&gt;" style="text;html=1;strokeColor=none;fillColor=none;align=center;verticalAlign=middle;whiteSpace=wrap;rounded=0;" parent="1" vertex="1">
          <mxGeometry x="855" y="240" width="60" height="30" as="geometry" />
        </mxCell>
        <mxCell id="-2vziXaGdaKvO8hJ6WF9-46" value="" style="edgeStyle=orthogonalEdgeStyle;rounded=0;orthogonalLoop=1;jettySize=auto;html=1;fontSize=20;" parent="1" source="-2vziXaGdaKvO8hJ6WF9-34" target="-2vziXaGdaKvO8hJ6WF9-42" edge="1">
          <mxGeometry relative="1" as="geometry" />
        </mxCell>
        <mxCell id="-2vziXaGdaKvO8hJ6WF9-34" value="" style="rounded=1;whiteSpace=wrap;html=1;fillColor=#ffe6cc;strokeColor=#d79b00;" parent="1" vertex="1">
          <mxGeometry x="960" y="150" width="90" height="60" as="geometry" />
        </mxCell>
        <mxCell id="-2vziXaGdaKvO8hJ6WF9-35" value="" style="edgeStyle=orthogonalEdgeStyle;rounded=0;orthogonalLoop=1;jettySize=auto;html=1;" parent="1" source="-2vziXaGdaKvO8hJ6WF9-36" target="-2vziXaGdaKvO8hJ6WF9-34" edge="1">
          <mxGeometry relative="1" as="geometry" />
        </mxCell>
        <mxCell id="-2vziXaGdaKvO8hJ6WF9-36" value="&lt;font style=&quot;font-size: 20px;&quot;&gt;out&lt;/font&gt;" style="text;html=1;strokeColor=none;fillColor=none;align=center;verticalAlign=middle;whiteSpace=wrap;rounded=0;" parent="1" vertex="1">
          <mxGeometry x="975" y="240" width="60" height="30" as="geometry" />
        </mxCell>
        <mxCell id="-2vziXaGdaKvO8hJ6WF9-38" value="&lt;font style=&quot;font-size: 20px;&quot;&gt;I&lt;/font&gt;" style="text;html=1;strokeColor=none;fillColor=none;align=center;verticalAlign=middle;whiteSpace=wrap;rounded=0;" parent="1" vertex="1">
          <mxGeometry x="615" y="90" width="60" height="30" as="geometry" />
        </mxCell>
        <mxCell id="-2vziXaGdaKvO8hJ6WF9-40" value="&lt;font style=&quot;font-size: 20px;&quot;&gt;go&lt;/font&gt;" style="text;html=1;strokeColor=none;fillColor=none;align=center;verticalAlign=middle;whiteSpace=wrap;rounded=0;" parent="1" vertex="1">
          <mxGeometry x="735" y="90" width="60" height="30" as="geometry" />
        </mxCell>
        <mxCell id="-2vziXaGdaKvO8hJ6WF9-41" value="&lt;font style=&quot;font-size: 20px;&quot;&gt;out&lt;/font&gt;" style="text;html=1;strokeColor=none;fillColor=none;align=center;verticalAlign=middle;whiteSpace=wrap;rounded=0;" parent="1" vertex="1">
          <mxGeometry x="855" y="90" width="60" height="30" as="geometry" />
        </mxCell>
        <mxCell id="-2vziXaGdaKvO8hJ6WF9-42" value="&lt;font style=&quot;font-size: 20px;&quot;&gt;&amp;lt;eos&amp;gt;&lt;/font&gt;" style="text;html=1;strokeColor=none;fillColor=none;align=center;verticalAlign=middle;whiteSpace=wrap;rounded=0;" parent="1" vertex="1">
          <mxGeometry x="975" y="90" width="60" height="30" as="geometry" />
        </mxCell>
        <mxCell id="-2vziXaGdaKvO8hJ6WF9-59" value="" style="edgeStyle=orthogonalEdgeStyle;rounded=0;orthogonalLoop=1;jettySize=auto;html=1;fontSize=20;" parent="1" source="-2vziXaGdaKvO8hJ6WF9-47" target="-2vziXaGdaKvO8hJ6WF9-49" edge="1">
          <mxGeometry relative="1" as="geometry" />
        </mxCell>
        <mxCell id="-2vziXaGdaKvO8hJ6WF9-47" value="&lt;font style=&quot;font-size: 20px;&quot;&gt;Input Pre-processing&lt;br&gt;&lt;/font&gt;" style="rounded=1;whiteSpace=wrap;html=1;fillColor=#dae8fc;strokeColor=#6c8ebf;" parent="1" vertex="1">
          <mxGeometry x="120" y="760" width="240" height="60" as="geometry" />
        </mxCell>
        <mxCell id="-2vziXaGdaKvO8hJ6WF9-60" style="edgeStyle=orthogonalEdgeStyle;rounded=0;orthogonalLoop=1;jettySize=auto;html=1;exitX=0.5;exitY=0;exitDx=0;exitDy=0;entryX=0;entryY=0.5;entryDx=0;entryDy=0;fontSize=20;" parent="1" source="-2vziXaGdaKvO8hJ6WF9-49" target="-2vziXaGdaKvO8hJ6WF9-52" edge="1">
          <mxGeometry relative="1" as="geometry" />
        </mxCell>
        <mxCell id="-2vziXaGdaKvO8hJ6WF9-49" value="&lt;font style=&quot;font-size: 20px;&quot;&gt;Encoder&lt;br&gt;&lt;/font&gt;" style="rounded=1;whiteSpace=wrap;html=1;fillColor=#ffe6cc;strokeColor=#d79b00;" parent="1" vertex="1">
          <mxGeometry x="120" y="570" width="240" height="160" as="geometry" />
        </mxCell>
        <mxCell id="-2vziXaGdaKvO8hJ6WF9-50" value="&lt;font style=&quot;font-size: 20px;&quot;&gt;Nx&lt;/font&gt;" style="text;html=1;strokeColor=none;fillColor=none;align=center;verticalAlign=middle;whiteSpace=wrap;rounded=0;" parent="1" vertex="1">
          <mxGeometry x="50" y="635" width="60" height="30" as="geometry" />
        </mxCell>
        <mxCell id="-2vziXaGdaKvO8hJ6WF9-58" style="edgeStyle=orthogonalEdgeStyle;rounded=0;orthogonalLoop=1;jettySize=auto;html=1;exitX=0.5;exitY=0;exitDx=0;exitDy=0;entryX=0.5;entryY=1;entryDx=0;entryDy=0;fontSize=20;" parent="1" source="-2vziXaGdaKvO8hJ6WF9-51" target="-2vziXaGdaKvO8hJ6WF9-47" edge="1">
          <mxGeometry relative="1" as="geometry" />
        </mxCell>
        <mxCell id="-2vziXaGdaKvO8hJ6WF9-51" value="&lt;font style=&quot;font-size: 20px;&quot;&gt;Inputs&lt;/font&gt;" style="text;html=1;strokeColor=none;fillColor=none;align=center;verticalAlign=middle;whiteSpace=wrap;rounded=0;" parent="1" vertex="1">
          <mxGeometry x="210" y="860" width="60" height="30" as="geometry" />
        </mxCell>
        <mxCell id="-2vziXaGdaKvO8hJ6WF9-63" value="" style="edgeStyle=orthogonalEdgeStyle;rounded=0;orthogonalLoop=1;jettySize=auto;html=1;fontSize=20;" parent="1" source="-2vziXaGdaKvO8hJ6WF9-52" target="-2vziXaGdaKvO8hJ6WF9-56" edge="1">
          <mxGeometry relative="1" as="geometry" />
        </mxCell>
        <mxCell id="-2vziXaGdaKvO8hJ6WF9-52" value="&lt;font style=&quot;font-size: 20px;&quot;&gt;Decoder&lt;/font&gt;" style="rounded=1;whiteSpace=wrap;html=1;fillColor=#d5e8d4;strokeColor=#82b366;" parent="1" vertex="1">
          <mxGeometry x="435" y="480" width="240" height="250" as="geometry" />
        </mxCell>
        <mxCell id="-2vziXaGdaKvO8hJ6WF9-62" value="" style="edgeStyle=orthogonalEdgeStyle;rounded=0;orthogonalLoop=1;jettySize=auto;html=1;fontSize=20;" parent="1" source="-2vziXaGdaKvO8hJ6WF9-53" target="-2vziXaGdaKvO8hJ6WF9-52" edge="1">
          <mxGeometry relative="1" as="geometry" />
        </mxCell>
        <mxCell id="-2vziXaGdaKvO8hJ6WF9-53" value="&lt;font style=&quot;font-size: 20px;&quot;&gt;Output Pre-processing&lt;br&gt;&lt;/font&gt;" style="rounded=1;whiteSpace=wrap;html=1;fillColor=#dae8fc;strokeColor=#6c8ebf;" parent="1" vertex="1">
          <mxGeometry x="435" y="760" width="240" height="60" as="geometry" />
        </mxCell>
        <mxCell id="-2vziXaGdaKvO8hJ6WF9-61" value="" style="edgeStyle=orthogonalEdgeStyle;rounded=0;orthogonalLoop=1;jettySize=auto;html=1;fontSize=20;" parent="1" source="-2vziXaGdaKvO8hJ6WF9-54" target="-2vziXaGdaKvO8hJ6WF9-53" edge="1">
          <mxGeometry relative="1" as="geometry" />
        </mxCell>
        <mxCell id="-2vziXaGdaKvO8hJ6WF9-54" value="&lt;div&gt;&lt;font style=&quot;font-size: 20px;&quot;&gt;Outputs&lt;/font&gt;&lt;/div&gt;&lt;div&gt;&lt;font style=&quot;font-size: 20px;&quot;&gt;(Shifted Right)&lt;br&gt;&lt;/font&gt;&lt;/div&gt;" style="text;html=1;strokeColor=none;fillColor=none;align=center;verticalAlign=middle;whiteSpace=wrap;rounded=0;" parent="1" vertex="1">
          <mxGeometry x="490" y="860" width="130" height="30" as="geometry" />
        </mxCell>
        <mxCell id="-2vziXaGdaKvO8hJ6WF9-55" value="&lt;font style=&quot;font-size: 20px;&quot;&gt;Nx&lt;/font&gt;" style="text;html=1;strokeColor=none;fillColor=none;align=center;verticalAlign=middle;whiteSpace=wrap;rounded=0;" parent="1" vertex="1">
          <mxGeometry x="690" y="600" width="60" height="30" as="geometry" />
        </mxCell>
        <mxCell id="-2vziXaGdaKvO8hJ6WF9-64" value="" style="edgeStyle=orthogonalEdgeStyle;rounded=0;orthogonalLoop=1;jettySize=auto;html=1;fontSize=20;" parent="1" source="-2vziXaGdaKvO8hJ6WF9-56" target="-2vziXaGdaKvO8hJ6WF9-57" edge="1">
          <mxGeometry relative="1" as="geometry" />
        </mxCell>
        <mxCell id="-2vziXaGdaKvO8hJ6WF9-56" value="&lt;font style=&quot;font-size: 20px;&quot;&gt;Output Post-processing&lt;br&gt;&lt;/font&gt;" style="rounded=1;whiteSpace=wrap;html=1;fillColor=#dae8fc;strokeColor=#6c8ebf;" parent="1" vertex="1">
          <mxGeometry x="435" y="390" width="240" height="60" as="geometry" />
        </mxCell>
        <mxCell id="-2vziXaGdaKvO8hJ6WF9-65" style="edgeStyle=orthogonalEdgeStyle;rounded=0;orthogonalLoop=1;jettySize=auto;html=1;exitX=0.5;exitY=0;exitDx=0;exitDy=0;entryX=0.5;entryY=1;entryDx=0;entryDy=0;fontSize=20;dashed=1;" parent="1" source="-2vziXaGdaKvO8hJ6WF9-57" target="-2vziXaGdaKvO8hJ6WF9-54" edge="1">
          <mxGeometry relative="1" as="geometry">
            <Array as="points">
              <mxPoint x="555" y="310" />
              <mxPoint x="770" y="310" />
              <mxPoint x="770" y="910" />
              <mxPoint x="555" y="910" />
            </Array>
          </mxGeometry>
        </mxCell>
        <mxCell id="-2vziXaGdaKvO8hJ6WF9-57" value="&lt;font style=&quot;font-size: 20px;&quot;&gt;Outputs Probabilities&lt;br&gt;&lt;/font&gt;" style="text;html=1;strokeColor=none;fillColor=none;align=center;verticalAlign=middle;whiteSpace=wrap;rounded=0;" parent="1" vertex="1">
          <mxGeometry x="487.5" y="330" width="135" height="30" as="geometry" />
        </mxCell>
        <mxCell id="-2vziXaGdaKvO8hJ6WF9-66" value="&lt;font style=&quot;font-size: 20px;&quot;&gt;Encoder Output&lt;br&gt;&lt;/font&gt;" style="rounded=1;whiteSpace=wrap;html=1;fillColor=#ffe6cc;strokeColor=#d79b00;" parent="1" vertex="1">
          <mxGeometry x="1478" y="520" width="180" height="90" as="geometry" />
        </mxCell>
        <mxCell id="-2vziXaGdaKvO8hJ6WF9-67" value="" style="rounded=1;whiteSpace=wrap;html=1;fillColor=#f5f5f5;fontColor=#333333;strokeColor=#666666;" parent="1" vertex="1">
          <mxGeometry x="1120" y="420" width="260" height="380" as="geometry" />
        </mxCell>
        <mxCell id="-2vziXaGdaKvO8hJ6WF9-89" style="edgeStyle=orthogonalEdgeStyle;rounded=0;orthogonalLoop=1;jettySize=auto;html=1;exitX=0;exitY=0.5;exitDx=0;exitDy=0;strokeWidth=2;fontSize=20;startArrow=classic;startFill=1;endArrow=none;endFill=0;" parent="1" source="-2vziXaGdaKvO8hJ6WF9-68" edge="1">
          <mxGeometry relative="1" as="geometry">
            <mxPoint x="1250" y="575" as="targetPoint" />
            <Array as="points">
              <mxPoint x="1140" y="470" />
              <mxPoint x="1140" y="590" />
              <mxPoint x="1250" y="590" />
            </Array>
          </mxGeometry>
        </mxCell>
        <mxCell id="-2vziXaGdaKvO8hJ6WF9-92" style="edgeStyle=orthogonalEdgeStyle;rounded=0;orthogonalLoop=1;jettySize=auto;html=1;exitX=0.5;exitY=1;exitDx=0;exitDy=0;entryX=0.5;entryY=0;entryDx=0;entryDy=0;strokeWidth=2;fontSize=20;startArrow=none;startFill=0;endArrow=none;endFill=0;" parent="1" source="-2vziXaGdaKvO8hJ6WF9-68" target="-2vziXaGdaKvO8hJ6WF9-69" edge="1">
          <mxGeometry relative="1" as="geometry" />
        </mxCell>
        <mxCell id="-2vziXaGdaKvO8hJ6WF9-130" style="edgeStyle=orthogonalEdgeStyle;rounded=0;orthogonalLoop=1;jettySize=auto;html=1;exitX=0.5;exitY=0;exitDx=0;exitDy=0;entryX=0.5;entryY=1;entryDx=0;entryDy=0;strokeWidth=2;fontSize=20;startArrow=none;startFill=0;endArrow=classic;endFill=1;" parent="1" source="-2vziXaGdaKvO8hJ6WF9-68" target="-2vziXaGdaKvO8hJ6WF9-95" edge="1">
          <mxGeometry relative="1" as="geometry" />
        </mxCell>
        <mxCell id="-2vziXaGdaKvO8hJ6WF9-68" value="&lt;font style=&quot;font-size: 20px;&quot;&gt;Add &amp;amp; Norm&lt;br&gt;&lt;/font&gt;" style="rounded=1;whiteSpace=wrap;html=1;fillColor=#d5e8d4;strokeColor=#82b366;" parent="1" vertex="1">
          <mxGeometry x="1160" y="445" width="180" height="50" as="geometry" />
        </mxCell>
        <mxCell id="-2vziXaGdaKvO8hJ6WF9-87" style="edgeStyle=orthogonalEdgeStyle;rounded=0;orthogonalLoop=1;jettySize=auto;html=1;exitX=0.5;exitY=1;exitDx=0;exitDy=0;entryX=0.5;entryY=0;entryDx=0;entryDy=0;strokeWidth=2;fontSize=20;startArrow=classic;startFill=1;endArrow=none;endFill=0;" parent="1" source="-2vziXaGdaKvO8hJ6WF9-69" target="-2vziXaGdaKvO8hJ6WF9-70" edge="1">
          <mxGeometry relative="1" as="geometry" />
        </mxCell>
        <mxCell id="-2vziXaGdaKvO8hJ6WF9-69" value="&lt;font style=&quot;font-size: 20px;&quot;&gt;Feed Forward&lt;br&gt;&lt;/font&gt;" style="rounded=1;whiteSpace=wrap;html=1;fillColor=#dae8fc;strokeColor=#6c8ebf;" parent="1" vertex="1">
          <mxGeometry x="1160" y="510" width="180" height="50" as="geometry" />
        </mxCell>
        <mxCell id="-2vziXaGdaKvO8hJ6WF9-83" style="edgeStyle=orthogonalEdgeStyle;rounded=0;orthogonalLoop=1;jettySize=auto;html=1;exitX=0;exitY=0.5;exitDx=0;exitDy=0;strokeWidth=2;fontSize=20;startArrow=classic;startFill=1;endArrow=none;endFill=0;" parent="1" source="-2vziXaGdaKvO8hJ6WF9-70" edge="1">
          <mxGeometry relative="1" as="geometry">
            <mxPoint x="1250" y="745" as="targetPoint" />
            <Array as="points">
              <mxPoint x="1140" y="640" />
              <mxPoint x="1140" y="770" />
              <mxPoint x="1250" y="770" />
            </Array>
          </mxGeometry>
        </mxCell>
        <mxCell id="-2vziXaGdaKvO8hJ6WF9-85" style="edgeStyle=orthogonalEdgeStyle;rounded=0;orthogonalLoop=1;jettySize=auto;html=1;exitX=0.5;exitY=1;exitDx=0;exitDy=0;entryX=0.5;entryY=0;entryDx=0;entryDy=0;strokeWidth=2;fontSize=20;startArrow=none;startFill=0;endArrow=none;endFill=0;" parent="1" source="-2vziXaGdaKvO8hJ6WF9-70" target="-2vziXaGdaKvO8hJ6WF9-71" edge="1">
          <mxGeometry relative="1" as="geometry" />
        </mxCell>
        <mxCell id="-2vziXaGdaKvO8hJ6WF9-70" value="&lt;font style=&quot;font-size: 20px;&quot;&gt;Add &amp;amp; Norm&lt;br&gt;&lt;/font&gt;" style="rounded=1;whiteSpace=wrap;html=1;fillColor=#d5e8d4;strokeColor=#82b366;" parent="1" vertex="1">
          <mxGeometry x="1160" y="615" width="180" height="50" as="geometry" />
        </mxCell>
        <mxCell id="-2vziXaGdaKvO8hJ6WF9-79" style="edgeStyle=orthogonalEdgeStyle;rounded=0;orthogonalLoop=1;jettySize=auto;html=1;exitX=0.75;exitY=1;exitDx=0;exitDy=0;strokeWidth=2;fontSize=20;startArrow=classic;startFill=1;endArrow=none;endFill=0;" parent="1" source="-2vziXaGdaKvO8hJ6WF9-71" edge="1">
          <mxGeometry relative="1" as="geometry">
            <mxPoint x="1250" y="735" as="targetPoint" />
          </mxGeometry>
        </mxCell>
        <mxCell id="-2vziXaGdaKvO8hJ6WF9-81" style="edgeStyle=orthogonalEdgeStyle;rounded=0;orthogonalLoop=1;jettySize=auto;html=1;exitX=0.25;exitY=1;exitDx=0;exitDy=0;strokeWidth=2;fontSize=20;startArrow=classic;startFill=1;endArrow=none;endFill=0;" parent="1" source="-2vziXaGdaKvO8hJ6WF9-71" edge="1">
          <mxGeometry relative="1" as="geometry">
            <mxPoint x="1250" y="750" as="targetPoint" />
          </mxGeometry>
        </mxCell>
        <mxCell id="-2vziXaGdaKvO8hJ6WF9-71" value="&lt;font style=&quot;font-size: 20px;&quot;&gt;Multi-Head Attention&lt;br&gt;&lt;/font&gt;" style="rounded=1;whiteSpace=wrap;html=1;fillColor=#dae8fc;strokeColor=#6c8ebf;" parent="1" vertex="1">
          <mxGeometry x="1160" y="680" width="180" height="50" as="geometry" />
        </mxCell>
        <mxCell id="-2vziXaGdaKvO8hJ6WF9-73" value="" style="edgeStyle=orthogonalEdgeStyle;rounded=0;orthogonalLoop=1;jettySize=auto;html=1;fontSize=20;strokeWidth=2;" parent="1" source="-2vziXaGdaKvO8hJ6WF9-72" target="-2vziXaGdaKvO8hJ6WF9-71" edge="1">
          <mxGeometry relative="1" as="geometry" />
        </mxCell>
        <mxCell id="-2vziXaGdaKvO8hJ6WF9-72" value="&lt;font style=&quot;font-size: 20px;&quot;&gt;Layer Input&lt;br&gt;&lt;/font&gt;" style="rounded=1;whiteSpace=wrap;html=1;fillColor=#dae8fc;strokeColor=#6c8ebf;" parent="1" vertex="1">
          <mxGeometry x="1160" y="820" width="180" height="50" as="geometry" />
        </mxCell>
        <mxCell id="-2vziXaGdaKvO8hJ6WF9-95" value="&lt;font style=&quot;font-size: 20px;&quot;&gt;Layer Output&lt;br&gt;&lt;/font&gt;" style="rounded=1;whiteSpace=wrap;html=1;fillColor=#dae8fc;strokeColor=#6c8ebf;" parent="1" vertex="1">
          <mxGeometry x="1160" y="350" width="180" height="50" as="geometry" />
        </mxCell>
        <mxCell id="h_zZaRSQI0q3ezaPBLRO-12" value="" style="shape=image;verticalLabelPosition=bottom;labelBackgroundColor=default;verticalAlign=top;aspect=fixed;imageAspect=0;image=data:image/png,iVBORw0KGgoAAAANSUhEUgAAASMAAALsCAYAAACodtHRAAAAiXpUWHRSYXcgcHJvZmlsZSB0eXBlIGV4aWYAAHjaVY7dDYAwCITfmcIR+CuUcUxTEzdwfKlton4PcEfIAfTrPGAbECpo8WphhomGBu8pKk4EkRhp9KyT1YVScdrlQXgKi+qo76Iq/ihi1Q5XdyvWrHGmcxd5KonCszXCxivxBrEsJf95b8jfA3AD/CstR+o9JpYAAAoGaVRYdFhNTDpjb20uYWRvYmUueG1wAAAAAAA8P3hwYWNrZXQgYmVnaW49Iu+7vyIgaWQ9Ilc1TTBNcENlaGlIenJlU3pOVGN6a2M5ZCI/Pgo8eDp4bXBtZXRhIHhtbG5zOng9ImFkb2JlOm5zOm1ldGEvIiB4OnhtcHRrPSJYTVAgQ29yZSA0LjQuMC1FeGl2MiI+CiA8cmRmOlJERiB4bWxuczpyZGY9Imh0dHA6Ly93d3cudzMub3JnLzE5OTkvMDIvMjItcmRmLXN5bnRheC1ucyMiPgogIDxyZGY6RGVzY3JpcHRpb24gcmRmOmFib3V0PSIiCiAgICB4bWxuczpleGlmPSJodHRwOi8vbnMuYWRvYmUuY29tL2V4aWYvMS4wLyIKICAgIHhtbG5zOnRpZmY9Imh0dHA6Ly9ucy5hZG9iZS5jb20vdGlmZi8xLjAvIgogICBleGlmOlBpeGVsWERpbWVuc2lvbj0iMjkxIgogICBleGlmOlBpeGVsWURpbWVuc2lvbj0iNzQ4IgogICB0aWZmOkltYWdlV2lkdGg9IjI5MSIKICAgdGlmZjpJbWFnZUhlaWdodD0iNzQ4IgogICB0aWZmOk9yaWVudGF0aW9uPSIxIi8+CiA8L3JkZjpSREY+CjwveDp4bXBtZXRhPgogICAgICAgICAgICAgICAgICAgICAgICAgICAgICAgICAgICAgICAgICAgICAgICAgICAgICAgICAgICAgICAgICAgICAgICAgICAgICAgICAgICAgICAgICAgICAgICAgICAgCiAgICAgICAgICAgICAgICAgICAgICAgICAgICAgICAgICAgICAgICAgICAgICAgICAgICAgICAgICAgICAgICAgICAgICAgICAgICAgICAgICAgICAgICAgICAgICAgICAgICAKICAgICAgICAgICAgICAgICAgICAgICAgICAgICAgICAgICAgICAgICAgICAgICAgICAgICAgICAgICAgICAgICAgICAgICAgICAgICAgICAgICAgICAgICAgICAgICAgICAgIAogICAgICAgICAgICAgICAgICAgICAgICAgICAgICAgICAgICAgICAgICAgICAgICAgICAgICAgICAgICAgICAgICAgICAgICAgICAgICAgICAgICAgICAgICAgICAgICAgICAgCiAgICAgICAgICAgICAgICAgICAgICAgICAgICAgICAgICAgICAgICAgICAgICAgICAgICAgICAgICAgICAgICAgICAgICAgICAgICAgICAgICAgICAgICAgICAgICAgICAgICAKICAgICAgICAgICAgICAgICAgICAgICAgICAgICAgICAgICAgICAgICAgICAgICAgICAgICAgICAgICAgICAgICAgICAgICAgICAgICAgICAgICAgICAgICAgICAgICAgICAgIAogICAgICAgICAgICAgICAgICAgICAgICAgICAgICAgICAgICAgICAgICAgICAgICAgICAgICAgICAgICAgICAgICAgICAgICAgICAgICAgICAgICAgICAgICAgICAgICAgICAgCiAgICAgICAgICAgICAgICAgICAgICAgICAgICAgICAgICAgICAgICAgICAgICAgICAgICAgICAgICAgICAgICAgICAgICAgICAgICAgICAgICAgICAgICAgICAgICAgICAgICAKICAgICAgICAgICAgICAgICAgICAgICAgICAgICAgICAgICAgICAgICAgICAgICAgICAgICAgICAgICAgICAgICAgICAgICAgICAgICAgICAgICAgICAgICAgICAgICAgICAgIAogICAgICAgICAgICAgICAgICAgICAgICAgICAgICAgICAgICAgICAgICAgICAgICAgICAgICAgICAgICAgICAgICAgICAgICAgICAgICAgICAgICAgICAgICAgICAgICAgICAgCiAgICAgICAgICAgICAgICAgICAgICAgICAgICAgICAgICAgICAgICAgICAgICAgICAgICAgICAgICAgICAgICAgICAgICAgICAgICAgICAgICAgICAgICAgICAgICAgICAgICAKICAgICAgICAgICAgICAgICAgICAgICAgICAgICAgICAgICAgICAgICAgICAgICAgICAgICAgICAgICAgICAgICAgICAgICAgICAgICAgICAgICAgICAgICAgICAgICAgICAgIAogICAgICAgICAgICAgICAgICAgICAgICAgICAgICAgICAgICAgICAgICAgICAgICAgICAgICAgICAgICAgICAgICAgICAgICAgICAgICAgICAgICAgICAgICAgICAgICAgICAgCiAgICAgICAgICAgICAgICAgICAgICAgICAgICAgICAgICAgICAgICAgICAgICAgICAgICAgICAgICAgICAgICAgICAgICAgICAgICAgICAgICAgICAgICAgICAgICAgICAgICAKICAgICAgICAgICAgICAgICAgICAgICAgICAgICAgICAgICAgICAgICAgICAgICAgICAgICAgICAgICAgICAgICAgICAgICAgICAgICAgICAgICAgICAgICAgICAgICAgICAgIAogICAgICAgICAgICAgICAgICAgICAgICAgICAgICAgICAgICAgICAgICAgICAgICAgICAgICAgICAgICAgICAgICAgICAgICAgICAgICAgICAgICAgICAgICAgICAgICAgICAgCiAgICAgICAgICAgICAgICAgICAgICAgICAgICAgICAgICAgICAgICAgICAgICAgICAgICAgICAgICAgICAgICAgICAgICAgICAgICAgICAgICAgICAgICAgICAgICAgICAgICAKICAgICAgICAgICAgICAgICAgICAgICAgICAgICAgICAgICAgICAgICAgICAgICAgICAgICAgICAgICAgICAgICAgICAgICAgICAgICAgICAgICAgICAgICAgICAgICAgICAgIAogICAgICAgICAgICAgICAgICAgICAgICAgICAgICAgICAgICAgICAgICAgICAgICAgICAgICAgICAgICAgICAgICAgICAgICAgICAgICAgICAgICAgICAgICAgICAgICAgICAgCiAgICAgICAgICAgICAgICAgICAgICAgICAgICAgICAgICAgICAgICAgICAgICAgICAgICAgICAgICAgICAgICAgICAgICAgICAgICAgICAgICAgICAgICAgICAgICAgICAgICAKICAgICAgICAgICAgICAgICAgICAgICAgICAgCjw/eHBhY2tldCBlbmQ9InciPz55KpczAAAABHNCSVQICAgIfAhkiAAAIABJREFUeNrs3XdcVfUfx/HXuZe9h4ogywFOXKgoCu690pQszVxpOSqt3KZWzjLLrH6alg01d64EFygOFGemuFEcgIqy1+Xe8/sjJ2HOlIuf5+Ph45GB957xOe/z+X7PuecqqqqqCCHEc6aRTSCEkDASQggJIyGEhJEQQkgYCSEkjIQQQsJICCFhJIQQEkZCCAkjIYSQMBJCSBgJIYSEkRBCwkgIIR6TyYu0sikZuYQfvMCV69kcP5eETm+QChCFiqmplgqeTrg4WtLE3x1bK7MXZt2VF+V5RlsPXGRTdBz+FT0o7e6MlbkJJiZaqX5RqOjy9GRl53H2chL7j8bRoo4XTWq6SxgVFbv/SuBMQgYBft5S7cK4avdQLOU97AioVELCyNht3neRhORcAvy8pLKFUYr68xzuzuY0LuIdUpGewE7JyGXL/jgJImHU6lb1JmxvHOlZOgkjYxV+8AI1K3hINQujV7OiO+EHLkoYGauEpCzKejhLJQujV6aUM/FJmRJGxurk+etYmptIJQujZ2lhyonz1yWMjJVOb5DL96JIMDPVkpunlzASQggJIyGEhJEQQkgYCSEkjIQQQsJICCFhJP4LOWx8y57y7pX5/GBe0V3LS+Es+rgnPRuXpZ6PDVXKuhAcFMyQ0Z+z+VQqqhSCkDAS/61MTi18nfZBLZjw3RKOpBWjfGBbmgb7UzIvhi0/jmRQkyr0/WoXKU+QSLptw2hXpzJjQ9OfwTrl8dcXjWgW2I3l8fLMq2dFbk8WT0DPpaU96fXhaq4Xa8Tb337LWy19sFTudIUJO77mk/fHs3lqO9423c6CgVV4nMeFqVnXuHThPJ4Zz6LHUslJvsSlCyrpebKXpTMShUAuWVn3v+tXvfIbkz5awzXrIN5fsoahre4OIgBzSjb4gFkrvqNpsXT2fzaIhWf/u7uI9TodetlpEkbi6Q17zoVOYkSXagSXt6Wyhx21a9akz4dfsifx5qGWFcroqmZUavYpJ/MffTnhTPQ3p2L9URy++cQJNT2GDdO7062+G9W9Hahbpzb9x37HvoS8e4In4t0SVPR/j70Zp/ljbBOa+BRn4LKr95nv0XP2t1lsS9FSfsBMelW0vO8aad17MPq9ICyyo1j4817yAHShjKpohl/PX0nNPyQL70+AmzX9Fl1DVRNZ2s2aKr0WkaFms3mQI76eLVicqCfhx2ZU9mjID9Eb+bpnJeqUtqKSuz116zdi+KwwLuXe/aIP+X65vzOsrBWvzo1Fr9vJ5Nr32c5CwqioD3vO/dSFkD4TWHfClIot3+CV7iHUcb3Ovl8/5M0eU4jRAZYNaNbIGcOJ9UScu/coyYleRXiCgnfbLlQxBTL2MPuVIIbOXM0l2wBadA0hwD2d/T+8wxsderImLt9Rpl4n8qMOjF2fTaUO/WlZ2RqloEU1XGJX+BHyTKrTrlOVB4z3NZRq/yr+ZgYu79jMIzVHij113p7LpH51sVBMqdzzW6Z98SH17G8uleEsiweH8E1ECqWCXqFThyBcM/azekpHXhu0kEuPOuVjUpNXP5vLW42KozHxpf34+Uwe3pGScqTInNGLlUUn+OPXcFLt2zIpbCUvu908AtSr/PFWNYb9sYZtsaOo6GtDQKvm2C1fztbN5+lXtszNs0o2B9evI1Epz4D21dCi4+g3b/G/gwZqDo/gf+/Vwk75+/fiVvan1zu/MfnjDgR+341iN49tNXEpC2NG8sP28VS3Vf5lWc9w9lwein01Knk++MPIilM1Krlr2Rl7nHN54PvQB7cF3g2745YVxuT5h3ANeJVOL9sCBhIA9PHEXalGz5/XM7JRSbSAmryLb3p1ZPb64XwZ2pbpbRxQHvr07Entzj3QHJrM9zuL49fudV7ykCSSzuhFozjR4L0f+Px/02jjprnn/5f1KYmiZpOV8/egybpBBwJt8zi6cQMJt87+ObsJC7sEvi/TuqIJ6KJYtfQYhvJDGDv4VhD9fYB7vjSZfvXMuBGxgqi7xi2q6kDTIe//exABqKmkpqkotvbYPGSHY2enoOqSSUl/mpPQWkp0mcqwm0EEoDgE8vbkIfhqr7Bl5UbSpbKkMxKPemooSdW2r1IV0KVe5MzZM1yIi+XcsXDW/PwXeirc+V3bpjQPsiV08zoirwzklZIKOdEr2ZqoofzrL1POBAzn9/NXogFz92xOrFnE6XxDwitaa5TsU5y5kAf2t47tClSpYv0Q4WKHra2Cmp5KxsOsm5pOeoaKorHAwlx5ettMsaRGUD3yz1hpfZoTWGoSP8UcIjYvhKpSXRJG4lGopB7+nukfTWFt9EWyDKC1LIZbuWqU9XJBe+Tug9CB+q0aYvnHFrZsu0rIK3YcXLeOK5qqvNauAlpAn3qdVFUlM2oGI6Lu11jYkZl5V6ei2GJj8xBhoS1NaS8TDPv/JOaCnvpltA9opI5w/IIejbcfZS3gqd0FqdjgYF/AzQIaZ5ydNKgXbpAmd1xKGIlHY0hYyMhug9mqqUeP6XPp0iSAcq52mCh6zs1uQJsjd/cgCvaNOlLHch3RoZtJ6ehK2MbLaPwG0vJWMFjZYKVocOm1ka1TG2H6r++ee/t1lYdpXDQe1AuuhMmeg6z//Ti9h1Xm/nFkIH7tYvZma/Bo0hpfE+Bfni2v6nLJe9gAUdNJTsmF/Hcvqckkp6go1jZYPuglHuX9hMwZvQgydqxgR7IJtd//ldE9mlPBzQ4T5e+OKTs7+x/NhOLckmYBFmTuWkvElhVsTdTi174Tt+aTtaX88LWD6zGHScx/VUm9zr4Fo5n++TLOPtaNfVrKvTqIBrY6YuYM5ddTOff9Tf2lxUz9YitZ1sH07FnrnjOgqsvJFwR64o4dJeuhwyiLQzuiyMr/nrFb2B2nx8y3KmVMnuL7CQmjF2KQpmhQUMlITcNw19At4/gCvl18DAMq93zLnVKC4Jb1MEsL4+tPVnJFW4fWbcvc2akWDWnf3gND9Gd88vOxuw5YA0kRHzF23Ocsi8nD4TGfzKtxfZ2x49vgmBbO1JDOzA4/R3a+buvK7pm893J/wq46UOeDLwjxvvVmllhYKOQdDWfv9TsrpTu/mK9/+pP75aNqyJ+qehKXj2ZW5JXb20xN2cu8UV9yTO9Eo86t+fsugMd5PwOqfBpEhmlFcAxGxBf9ueakFLgbfF6ZTu/gEBoXW8uGL9vTJ+5VAkqpXDu5na2b4yhZ0RvN5XNsnTsTv0Fv0ayiLQoaijfrQPWPthJ1Lg3zwDE0c7/7/GJF3Q+/JmRHCL+NCqTt6nY09CtObtwOtm45RLJTWyaO6YqT8vjl4/nar/yg68vgCauY9VoFFnjXonplb+yVNOKP7+Hw6WvkmZSi/sjFzBzgd2cwZVqTps3d+e2XJYzskEJU+9rYJR9h+5o1nFKcsdek3NsFWlhhoeRyaOFYvrsaSFDPVyh2c47LyyuZhT1qsSe4KZUckzm+YwtH4nMo3mouH7Qv9vdl/Ud6PwVzS0vQH2XtjE/R12vCS680oJicuiWMikYYpXBy08+cLPCH5tT3n0ifwBA+WZSB4+RviAidzRETd3yrNab/0lV0KxXJxO5vs2rNZ6wIfI2mFW1RAI1rG5rWGM6ePRpqduiIqyb/UK4N41dvpdKXk1myIYyVB/KwditHxS6T6fX+OwS7P2EJKLZU7LWUdU02svyHnwgL38WRiIOk51ngUKoCwT2H8tIbb9K8klO+NtyWBhPWMc1yBD9uiGbV7FCy9Ao2Fd9g0jgflvSceM9vm9Z5kwEtd/Fd+Dxmn4jHNSTkZhjZU//jCNodGcHUH9exJjEHy1LVaT98JO8NbIO79nHez4QKIe/TfusYwlZN4bs4W5qENPj7/cR/pkh/vfWQmRG881pQER/bXWN1bx9GbKvLxN1/8EpJxThXI/cGV5IMOJR05uGu/BtI+LEFTcecJmTZKcbXN/2P3+/5m7Uokq+HNpLOSBTSg/jqWtZFZmBerytNXBSjXQ/FzBEX16L7fkLCqOiO+nKzyCOVqC8+Z2eWPU1ebn/7Ix1CSBiJZxVFXFnYnqajItChYF1jPG+1K86LlUUKWksnipcoho2pVISEkXhONNj7v0aPHj7g1ZjOPbtS3vxF2wYKxbstJaKbVIOEkXiuLKv2YdTnfWRDiCJ0ihVCCAkjIYSQMBJCSBgJIYSEkRBCwkgIISSMhBASRs+HmakWXZ584ZUwfrk6PWYm2iK9jkU6jHw9ncnKlu8nFsYvMycXHy8nCSNjVdLJgrOXkqSShdGLvZBEKScrCSNj1aSmOwdiLkglC6O379hFmtRylzAyVrZWZrSo7cmuQ7FSzcJo7T4US9t63lhbFO3HExTpJz3esifmCicupFGvmrdUtjAquw6dpbK3A7XKFy/y6/pChBFA+IFLhO09T82KHpQu5YSVhSlmplqpdlGo5Or0ZObkcu7iDfYdi6N1XW8a1Sj1Qqz7CxNGAOlZOsIPXCQ+KZOTcdfJ0cllf1G4mJtq8fV0wtXZiib+7kV+aPbChpF4+ho1aoSiKISHh8vGEE9E7sAWjy0iIoJt27YRERFBRESEbBAhYSSejwkTJtz+74kTJ8oGERJG4vl1RXf/XbojIWEknmtXJN2RkDAShaIrku5ISBiJQtMVSXckJIxEoeiKpDsSEkai0HRF0h0JCSPxzLuiN954g9jYOx9Ajo2N5Y033pDuSDw2uQNbPLRGjRrh7e3NhAkT8Pb2/ruAFAWAW2V07tw5JkyYwLlz5ySQhISRePqSk5NJTk6+HUK3CyhfGN1y7tw5HBwccHBwkI0nJIzEMyig+4SREI9K5oyEEBJGQgghYSSEkDASQggJIyGEhJEQQtyPibEu+OXLl7l06RLx8fEkJiai0WiIjY0lJyeHnJwcvLy8OHnypOzhZ2TAgAGyEZ4BX19fzp8/j7m5Oebm5pQuXRqDwUDJkiUpWbIkpUqVws3NzSjXzWjuM0pNTeXw4cPExMRw/PhxfH19URSFEiVK3P5jZmZ2eyeZm5tL5T4D1tbWAGRkZMjGeEZunXBzcnLQ6XQkJCRw9epVrly5gqqqnDp1igoVKlChQgWqVauGnZ2dhNGTUlWVqKgodu/eTVpaGt7e3pQrVw5fX9/bB4GQMBL3Sk9P59SpU5w6dYqzZ8/i6OhIYGAgAQEBEkaPKisri3Xr1nH69GlKlCiBv78/vr6+UmUSRuIxnDx5kn379nHt2jXKlStHu3btsLCwkDB6UPu5YsUKoqOjadasGY0bN5ZKkjAST9HWrVvZtGkT9erV4+WXX8bUtPB8L1uhCaMtW7awefNmmjRpQv369aVqJIzEfygyMpKtW7fSsmVLmjRpImEEEBcXx/z586lQoQIdO3aUKpEwEs/Q77//zqlTp+jXrx+lSj3fr9F+rmG0adMmzp49S4sWLXBxcZHKkDASz0F8fDybNm3Cx8eHpk2bvnhhNHv2bIoVK0aHDh2kGiSMRCHpkpKTkxk4cOCLEUaqqjJz5kyCg4OpVKmSVICEkShEjhw5ws6dOxk2bNgzf+9n+nGQlJQUBg4cSM+ePSWIhCiE/Pz86NGjBwMGDCAtLa1ohpHBYODTTz9lxowZWFlZyV4XopCysbFh5syZTJgwAYPBULTCKCUlhREjRshX2AhhRD755BM+/PDDZ9Yh/edzRqqqMnDgQGbMmCF7twiSOaOib+jQocyZM8f4w2jGjBm88cYbMjSTMBJGKj09nYULFzJ06FDjHabNnj2bhg0bShAJYcRsbGwIDAzk22+/Nc4w2rRpE87OznLVTIgiwM/PDwcHB7Zs2WJcYRQXF8fZs2fl4x1CFCEvvfQSJ0+e5NKlS8YTRvPnz6dFixay94QoYpo3b878+fONI4w2b95MhQoV5LNmQhRBbm5ulC1blvDw8Kf+2k/1alpOTg4TJkxg3LhxhXJDpueksP/CNq5nXiHu+knyDDqpLlGomGjM8HLyxcm6BP7uDbE2L5yPjJ04cSKTJk3CxOTpPUb/qYbRokWLKF68eKF8HlH0+a1Ex4Xj6+pPSXtvLEytMNGaSvWLQiVPn0u2LpOElHOciN9PHa+m1PYsfA8ZjIyM5MaNG3Tr1q3wDdOysrLYu3dvoQyiI5ejuJKZQJvqfSjnUg0bC3sJIlE4OyOtGTYWDpRzqU7b6n1JTL/E0fi9hW45g4KC2LVrFzk5OYUvjNavX0/z5s0L3Ubbe34rcSlnqexeTypdGJ0qHvU5d+MU++IiCt2yNW/enPXr1xeuMFJVldOnTxe6Z1an56SwLy5cgkgYtcoegew5t4nM3LRCtVxNmjR5qt9N+FTCKCoqimLFihW6nXjgwjZ8XGtKNQuj5+vqz/4L2wvVMimKgpOTE3v27ClcYVSrVq1CtwOvZV7Bzb60VLIweiUdSnMtI6HQLVetWrWIiooqHGGUmppKampqofxeswvXT2JuKp+LE8bPwtSKCzcK39e1V6hQgevXr5Oenv78w+jw4cN4e3sXyh2YZ9DJVTNRJJhqzdDpcwvlsnl5eXH48OHnH0YxMTGUK1dOqkWIF5SPjw/Hjx9//mF0/Phx+eppIV5gvr6+zz+MLl++TPny5W8/YEsI8eKxtbWlTJkyJCQ82QT7E4XRxYsXURRF9oYQ4okfLfJEYZSQkEDx4sVlLwjxgitRosTz7YwSEhLkUSFCiOcfRlqtVjqjJ2A49T0hHn5ULlmVxh/sJPtRXyBzA+95+REwOJwHXvQ1xLOwUw2qBkzn4LN6ckruFj4s60dlt4YM+/0a93s8RPbqodQsWYPePyZikLIwSiVLlnzi13iiMIqNjcXc3Fz2xONFEWfXbeSETgUMXNsURnRmYVq+HOLCvmFYmzYE+dSjSeMBTF5ygrTHeeCMIYnNn3zFthuq7PYiyszMjHPnzj2/MMrOzsbMzEz2xOPIO83GdSfRW1SjQaAdXN1G2K6sQhOUV9eM5Y0+8/jTpj6vD+tD0xKxLBval5FLEh65e1E0GtTLa5j22V7SZc8XSebm5k/8OJEnCqOcnBwsLCyeycomJycXqZ2njwkj7IQBi8BOjOzdAFtusG3NHgpFc2S4wqYFW0gq8RITF4yh/9tvMuanyYR4pLJrWThXHzGNTKp3oFMVEy78MpW5+7KfwQroyM4qYCH1OnJ0MhD8L1hYWJCd/WT79onCyMvL65l1RikpKbRq1Yrt27cXgV2nJ2bNRmL1ltTp2Biv4KYE2qokbwkjqqDWQc3g9Kovea9VS+p5+1PbrwN9PljIwWv6Arua5EPLmdL9ZZr4+lPTpwmduk9j1dH0R+ho9OTlqWBtj/2t3Wtig42VgqqqPPJgy7wivT7tTllOs3DsAo4/5Kca8uL38POH/elUox7+nrWpXzuEQeOWcTjJcE/wbHu3PlX9pxCdEUfo2F609AlkyLLrqHlH+TKoGjV7r+DQojF0qVIHf8/q+FdozevvLyMm3UDakeV82rU9QWVqUsO3GSH957H3qgTW4wzTPD09n18YnTp16pmtrJeXF56enrRu3ZrWrVsbdyjp/iLsjzgMNnVp3dwJjV09mgRZo96IJHR7+j/mbmK+Gcjrg+ax5TSUadSC5gFOxK+ZxpuvzSPmnjxSSdv5BX06T2RhRDxWVRrSqmUlLI4vZ3yX91l2Tv+QVeFKk861sIr9nXmr4jGo6Rz5bjpLTlpTu2MQJR6jaixr9WdUDw90h39gyo+xPGhJDJfWM7LdAKYvPEymRx1adW1GNackouZ9TO+Ok9ielC8S1RR2fjSQ8etzqdghhOaVLbl1B1xe9De8M2IbamBX+g4OIaBYEgcXfcKgnkPo2+Vzokxr06lfVxq6ZxCzdhbDRm9EpreefR6YGNPKjhkzhoULF7J9+3a2b99OcHAwo0aNIjg42Liy6OBGNp0zYNO6FcGOCii21G8TgPX6cHas3U1am+bY3jooz/7G5BkHyHBtzvjFU+ji+/ewOPvUCoaHTGRLHtjcfuGjzB/1KyfzStN57neMa1sKU0BNPcL83m/z1U4DitfDnaPcu49l6MYeTBo5kAFLsjlwQCHoo+/4uKfH453BFBsChn9I+7B3WfPFNFa2/paunvd5JTWFLZ9OJSzegaCP5zCjb3mslL87xKNfvk2f6cuY9GVrAj6pxa3LJ2riBhbHvMnc7YOoZnszhvJu9nnXsyn/6SK+6eONGaD2q8Lg4HFE7N6N05AfWTKqGtYKqIMCGdtoCGt27+ZYXivqy2esnymNMS2sl5cX3bt3v/337du3G2GnlMvhNZu5rNpSv2MQdgqAgl2jZtSxVknbGsauFPX2kOvc2vX8mW1Ng+FjeNn3zvychU8nRr9bB4u7boDPO7CeDWcMOHd6n+E3gwhAsfOj96fd8X2Egyv74hmuGCwwM1xgz640Aqcu4IsB1W4u7+NRHBvy3rhmOKbtYtbEP7hyv9FQ6g7WbUxGW70nI3rfDCIAxZrKg96jsxdcXvvHPbcoqKodjYf0vhNEd9G6tKFfj7+DCEApVo3q3loUqyB6DaqKtXJrO1WjViUT1KwssqQzkjB6mO4oP6MKpZyDhG6IR7UPonVD29tDCcWxPk3rWaKm7iQ0Iu3mvEwup/+KRW9SgfoNnFDy7boSQfXwMbkzV5QUc5JEgzk1Gvvf6ZZuHZDl6hFQ6mF2t4HE0En0aDmCsOJvsyj6V96tk8e2j8ez9HQukMOuKW8xeMRqzuofvdyKd/yAdxrbkhw6ky/DbhQ4/6Q/c5xT2Qpudf1x1+afnKhMnVo2qEmnORl/V5ppy1C5imXBIejsjOPdr6OYYm6uoLF3wcXqrq2qmGFuLh9vel4KzTDtaXzYNv/wrTDKjgpja4IBg3497/oW9DBzhd1rdpDaoQ32ZJORoUfVOODo+M8g0RQvgbMGYm/+PSs9E1WxxtGxgHu/tM64FNfClQdE0fmljB6yhMSgT1n+VQdcNFDuu4mcaDecaW9MxXVZO/as2UWkTQ3efazTnxudPn6bdS2nsW7CbNrVH0v+BwMb0jLIUDW4OtkXcLbUYu9ki0ZNJ+3um54Ua2xs7hckCgX+RD5XKWH0X3uKXwX3tKOIfWvCuWowp1zrLgR65DvU9JfY+Ws4Z7eHEZncmnaOltjamaIYUkhONoDVvb+vZmZy5wq2go2dDRo1gxs3coF8YzI1i4zMB10lUkmK2MKBDHva9WiFy82307i2YPx3x4l9ZT7D225DSVRwf6supbWPtxW0ZV9h9JD1vDp1BVO/bMuCavmnl6ywUlTSbqQV0DnpSUtOR1WKY22tSLZIGP13MjIy/vXn58+fp1KlSgX+LCgoiNGjR9+e0I7euqpwrVzmXkI3JqHaNKLv5yPp4Jzv6FGTWHU+inFbogjdnEzbrvaU8yuLdnUMO3fc4NUQ57vO8Cppe6M5rr8TRg6VylNSs4dDEfvJeCmYu3tNQ8IB9p0xgMu/h5FOp0NV9eRk6eDOLAvWdQbx+dgjhIyNIt2qNkN6+j1B8ZjiO2AUr//ei3nzp/Jj32L5wqoC5cwNRO7dzyWDH/fMc+uOE70/HRx98HXTAHo5imXO6PmYNGlSgSG0YcMGQkNDC/WVtYzIDWxLUrEJbkWwUwGnccWJhu1rY0kme9Zs44aqwbNNa6pbZBD52RRWn75zh2vexS18Nm0LqXc1OybVWtOqnIZrK7/gs9D4WxeTIOssK8d9z75s9YHlUNyvIi6aNLZ8OZf9KXd+P/tMGPN/+ZMMFSCL60lPeLe4RVXe/LQrXvoYfpm3+57P1in2DWjTzB79gZ+Z/vMpbr+TmsKhr2awPFbFrUNbasrN/9IZPS/nz59n4cKF9+2ECrd0dq+OJFm1pUXHBtgXPImBY9MW1LHezrZdG9l2rSOdSocwYtgm+k4JY1ybGH4PromXWSKHwvdwsUQAtUrtIeZ2w1GJPpN7ENHjJ5b3C+Fg/bpUL2XgfNRODiSVIaBWNnuuPqBnqd2Twa3DGLP+B/o13Etwo/JYXjnG3qjjXFHK0mVWX8y/Hsv3/SdSbt1UWrs+/vnMOnAgw7uGM2TxZdS7h5WKAy3HDicsehybR7/Oy2sbUNvHkhtHdrPzQCL4dGPcMH8s5PiVzuh5d0XG0gndMwBK2Uno1lRwCKJ1IzvuO9XqHEyL+laQGU3opiRUzKk0+Ft+nt2HpmXyOLF5HevCL2LXYhhzfnsP/3uutSvY1h/GDyvG8VrDEqQd3Mqa36NJcm/HR8tn07uyGQ+cVtG40v7bn/l6eFv8rC6yY8VaImKy8GjzFjPW/8L4kLYM/qQzrokbmPDm9xx9ks+vKPYEj36fli4FTM57duCzdf/j/Vf9MDuzg7UL/yA60Ym6b45nwe+jaOAkE0RFjaI+wWzvgAEDmDlz5lNZkFtX0+43Z3T+/HkGDBjwSJ3QjK1Debn2O7KXRZGwInoW7zeZWWiXb+jQocyZM6foD9Ps7e0JDQ2VihRChmnPl4ODg+wtISSMhBBCwkgIIWEkhBASRkIICSMhhJAwEkJIGAkhhISREELCSAghJIyEEKJoh5GJxow8fa7sZWH0dPpcTLVF+wFORTqMPJ18yNZlSiULo5ety8DD0UfCyFgVsy5JQso5qWRh9BKSz1PcxlXCyFjVdA/mRPx+qWRh9E7ER+Pv3lDCyFhZm9tRx7MZf13YKdUsjNaRCzuoV7oVlmY2EkbGrLZXI7ydyvPXxV1S1cL4gihuJ2WdK+HvEVzk19XkRdihVUrWJjs3nXUH5+Hr6o+rvTcWZtZF/uqEMD46fS7ZugwSks9xIn4f9bxbUcnF/4VYd5MXZSfX8mxMpZK12H9hG2cSDhJ34yQ6uewvChlTrRmejuUpZuNC37qji/zQ7IUMIwArM1uCyraTin+KHvRFCkI8LLkDWwghYSSEEBJGQggJIyGEkDASQkgYCSGEhJEQQsJICCEkjIQQEkZCCCFhJISQMBJCCAkjIYRReqE+tZ8fTOTxAAAgAElEQVSaqWPHXwlcS87lZNwNdHqDVMATGvxFOAAj5uyVjfEUmJpq8XV3oLi9OUFVXbCxNJUwKmoijyQScSge/4oe1K7qQcPaJpiYaKX6RaGiy9OTlZ3H2ctJfLHsLxrXcCPIz0XCqKjYdyKJK6l6+rwUINUuCndnZKLF1EZLdV83qvu6sevgWfafvI6/r1ORX/ciP2e07XAi56/lUrdqaal0YXQCa5Qh9ko2O44kShgZs9RMHdv/jKduVW+pamG06lUrzdaD8WRk50kYGasdfyVQs4KHVLMwejUruhP5Z4KEkbG6ciOHsh7OUsnC6JUp5cyV5BwJI2N1+kIyluYmUsnC6FlamHLqQrKEkbHS6Q1y+V4UCWamWnLz9BJGQgghYSSEkDASQggJIyGEhJEQQkgYCSEkjMST0x8cTUt3E3xL/tsfcxqO3sZzubnfEMcvnayoGPABB3T/+ovEfRdE5ZIPWBdXO95bl/Ni7NzMJQz2MqXm4LXkSqk/dXJH4H9CQesRRJsAj/ukvQaH6iVQjGJdtBSv2ZHAMpb3WVUzqrnLOU1IGBVaZv5DmDK7E2ZFoER8u81ies+SRhKeQoZpQjzJ6DErk+c72FPJysxClV0hYfQiy7kQxtz3mtGmmhNVS5egUeOWjPk2jIsFHJ1qegwbpnenW303qns7ULdObfqP/Y59CflnoAwkH5rHp91rEuxri5+PF+27v8+Ko6n8Zw/bVVM5uXIs77arQN2yNvj5eNC6Uy++DTtN1t1LFjuDVzys6f1zPMl7Z/BOE1dqBI/mcM5FFr5sTXnPlixOuBMLasoiBpY1xdfNk/GRd83W5B1mVmMLypfryroUFVBJO7aIGf2DaVnNGT8PK6pX8qFzz2EsPXT9nqBJWdqRKh61+PZ4CscX9qVLDQfqDwtFB6CmcWrVGAa3Kkdtbxuq+/nR84PZHLiml2KVMCq6dCe/ZVCbDsxYfhRt5XZ06NyCsuohVn7SgVd6zebk3TOlGXuY/UoQQ2eu5pJtAC26hhDgns7+H97hjQ49WROnv32WT905ip6d3+aXiAtYVmlD65Y1sDg+j7FdXmXJuf/ioErn4Oct6TZ4GpvOWVC5RXfaN/TFcGwxX/UO4u15x9Dl60R0p7/hnV7TOFW8BZ1fbYKbiSv1GlZBq9vP3n3pdzLnyC6OZKlguMrBvSe5tfSGq7vYd0aPmX9zAuwUcv6cTO8ObzB34wUcanWmS88+tPC3Jz78a8aFvMbi84Z/BHbCqn68OSESi4DuvNrMFy1ZHPumPa8Nmsbm0wplG3WhZUAx4te8T+/XpnJM8kjmjIxN7oFvGfvuugLSXsGm3lBGdauM1nCG30aOJjK1Mm8s2sCIYBe0AHmX2f5RGwYtGMsnv7Tmp75l0aDj6Ddv8b+DBmoOj+B/79XCTgHIJm5lf3q98xuTP+5A4PfdKJa3n+9HzeJEXgW6zF3LhLbemAJqajRze7dj5k49itfDrkkep5YNY9T+giawTanc80te97dAf+xLJs7ah67CQL5bNIOGJf8uLX38CkZ17M7qKe+zos16urnd2iI69i/4jVZf7eOHTp63C1Ef3AyP6Yc4uPsgunbBmKInNjqKJJMSFLe6Ruze3VxXq1Bcgaz9kRzVmVCpYROcFR37l87naJYHnRdEM7m58805Lj2XFrShzahINkde5VUvlztzX3nHWLGwJCPWH6an79/rpz87k09m7CTdtTOfLF5AV18rALJPzWdYyEA254GNlLeEkfFQ0ceF83tcwc2os0kII7pVhlO/sTI6C9dXp/PerSACMHEjeMRYmq54jU1r/yC+9xBK6aNYtfQYhvIjGTv4VhABWOD50mT6LV7JxIgVRKV2o9Xxxaw/o6dYl6mMuhlEAIpdbfp9Opg/Wkzk5EOvi54r0UtZGV3QzyxIDf6M1/1NiFm9lBP6EnQY+entIALQunbmg3eaEPbhNtaHXiKkj8ftbaRU7MeQDp73FKG2UlPqFf+MpXu3E6sPxleTxOHoEyjV3uf14rP4ctcODme9STMrHUd3R5GpLU9gsDcaFNzaT2F6LTdqNna+a7Jdi4tPeew1kWRnZaPCnZ+pKiVfHsOrvpa31/Xc2sUczrYlePgsutwMIgALn96Me3cJO0aFS3lLGBkTBcuXlhL9v3+/mpZ6ZB9n8jSUIZbNKxblG0FcxGCroI89TpweXC/v569EA+bu2ZxYs4jT+QNDa42SfYozF3JJivmTRIMlTRoH/eMsri3XjLqlPuXkQ8/UmlN/+hl++LeraeoNTh07i8G0KXUDbP6xLZzrNqScyWZOHY1Bj8fN0NVg7+ePR/4nvJjVoUF9B35bE8n+qyq+Dvs5cDgP15DmtHHfztdhe9h/TEezGqfZHx0Pbp1oUP7vMi4V8AqlADX3OpeOnyLufCwXzhxk+5JfuaIH93/sJlPKV6vKnS8DyuHUXyfQm/jToEH+Wy80lAhqhq9JOGelwCWMihYDacnJ6FUdx35+mw9+vk+s2aaTqYKaep1UVSUzagYjou7zklo7MjMNZKWnoyq2ODpaFPA7JShZXAtXnmYjmEZ6ugEsHLG3/GdkaRyK4aConEpNRQ83w0jB2ta2gICzplbD+lisjGTvvnS6eu7icKoN1WpXp5RHA7yVzzkYHYfeaxf7Tuhx7NycyjfTxHBlGz+M/5Af/jhIUg5gakMxz4pU8iyN7amYAjs7G5u7ThdqFhkZeagaZ5wc/znA1hZ3o5gGCSMJo6LXPVlZW6Mo1rSeG89X7a3+fbBkZYOVosGl10a2Tm2E6b8MEa8et0ejHuPGjRzI35upmaRnPuXraYoN1tYKZCeTmvXPtzSk3iBVVbCwtuHuRkhRlAK3i1395lQ1+YODu/cTf3U3cUp1utewROscRA2naazbu4erpSM5orOlXuN6WADoT/BT/458ts+RoMELeLNzE/zKuGJlAnnRw2m1PabA97pnERQrbO3MUAzXuZFsACtNvk2XTqZ87+d/Rq6mPccwsqvgh5s2h1N/xfzzoyFZB1k1dSQzfjtANqAt5YevHVyPOUxi/gNCvc6+BaOZ/vkyzuYpOFaqiqsmiwMRkWTk78cSdhB95ilfElLs8KlYGk2+q2C3wvHG3u2czjOhXOUKPMxzNzUujQmsoOHK3jBW7zqEoXQgNYprwLQWdfwtyTkYzvLtu0kzr0uDenZ/r9elDYTtz8C61VRmjuxOgO/fQQSg5mSR81DDUjN8/SqizTvIjh1X891zpJK6dxsxcjVNwqgo0lZ5hXa+Gs7+OIz/7U++U/xqCgdnDWTCrG85kObwd6Nh0ZD27T0wRH/GJz8fu+u+HQNJER8xdtznLIvJw0ELJtVeoXU5LddWjmRqaNydoMuKYfm4aURnP+1b+0yo1DGEctoE1k0Zz86rd47Y3PNLmDpzI5lWwbRv4/lwBaf1ITCoNOqxH/g1Mh17/3qUNQEUe2rWrYbmyhp+XRWLpmpz6jkrt9osNIA+PZWsu1ZPf2MPP369nKsGQH3QemvxbPMKNSzS2PbZe6w6fWcr5138nWnTVpMqnZEM04ok0+r0nTqcbd0n83Xnqmxr3pbqrgpXD/3Bln2XsajzCaNeL3PzALai7odfE7IjhN9GBdJ2dTsa+hUnN24HW7ccItmpLRPHdMVJAUxr0m/yEMJ7zGRpvzocqN+U6qX0xEVtYl9SeerVymT31accrJXfY8LAdfSbNYv+zbbToGEALnln2Ld1K2fSnGnwyUy6lNI8dFlWaNSYYt/NITHFkoZ1at0c+WlwDWiAu2YnsTdMqRjcDNebL6lxa0ubOhPZv304r/f8k9Y1i5N7+TC7N2wltUx5XLQHOLn6M372GUqPxuXuf3Yu3Z/Rw1bSa8pyRrc5xMrgBniZXeRQeDgXSzSmTqlwjkrlSmdUFFnXGc+CNT/Rv4UHN3YtYvHClfyZUZYWwxazZNEIqtw1B604t2H86q183K8RDhfCWPnTAsJPQMUuk5mzfgkhZUzumneZys8rvqFHQzfSDq5m9e/bueb+GhOX/07fyuZP/3Nmih3+IzeyaNYHNCmVwqF1P7By458YKr7G0AWRfNOn4r/McxUwYKrZnDp2GjCpiL+/4+3l1VYMwt9BA1pP6jUsf2fYpy3Ha3PXMLJrTUyO/saC//3A9lNa6o6PZPWKXxjSphzqkZ+Y+3v+my/zs6Ty4LUsnP0hzcroOLF5IevCY7FrMYV5v02ilp18Qu8/m7hQVfWxe/YBAwYwc+bMp3NQWlsDkJGR8dRWbsScvbzzWpDsZVEkzFoUybQBdQrt8g0dOpQ5c+ZIZySEkGGaEEJIGAkhJIyEEELCSAghYSSEEBJGQggJIyGEkDASQkgYCSGEhJEQQsJICCEkjJ4GM1Mtujx5GpYwfrk6PWYm2iK9jkU6jMq5O5KVnSeVLIxeZk4uZT0cJIyMVQkHM85eSpJKFkYv9kISJe3NJYyMVZCfCwdiLkglC6O379hFgquXlDAyVjaWpjSu7srOg/LlMsJ47Tp4lha1SmFlXrSfEl3kr6Y18HOhrKsluw7FSlULo7Pz4Bl8SlkRWKVEkV/XF+KB/P4+TmRlX2H+qj3UrOiOt5sT1pammJnK9xGIwiVXl0dGVi7nLt9g/7ELNPMvRfWyji/Eur8wR2MDvxLU8HEi8kgCB46e5fTFFHJ0ctlfFC7mplp83B0o4WjOh938ivzQ7IUMIwBrCxNa1XaXin+KWrVqBUBoaKhsDPFE5A5s8dgiIyPv+SOEhJF4LiZNmlTgfwshYSSeeVd0v78LIWEknnlXJN2RkDAShaIrku5ISBiJQtMVSXckJIxEoeiKpDsSEkai0HRF0h0JCSPxzLui7t27c+zYsds/O3bsGN27d5fuSEgYiWfTFd0Koblz5+Ll5XX7Z15eXsydO/d2KEl3JB6VfFJUPJSUlBTmzJlzTwAV5FYonT9/npSUFOzt7WXjCQkj8fTY29s/UrA8KLSEkGGaEELCSAghJIyEEBJGQgghYSSEkDASQggJIyGEhJEQQkgYCSEkjIQQQsJICCFhJIQQEkZCCAkjIYSQMBJCFCmF7nlG1tbWsleEkM5ICCFe8M4oIyND9oYRkk5WSGckhJAwEkIICSMhhISREEJIGAkhJIyEEELCSAghYSSEEBJGQggJIyGEkDASQkgYCSGEhJEQQsJICCEkjIQQQsJICCFhJIQQEkZCCAkjIYSQMBJCSBgJIYSEkRBCwkgIIR6CyYu0shm5qey/sI2kzCvEJZ0gz6CTCnhCH6/tD8CMrUNlYzyNA1JrhqejD85WLtTybISVma2EUVGzLy6c6LhwfFxr4utWi6qeQWg1plL9olDJM+jIzsskITmWBXumUcerGbU8G0kYFRVH4vdwJTOB1tV6S7WLwn1AakyxMbOnXInqlCtRnb8u7OKv+L1Uca1T5Ne9yM8ZRceFcyHlLJVK1ZVKF0anikcg51POsP/CNgkjY5aRm8q+uK0SRMKoVS5Vlz3nN5GlS5cwMlb7L2yjXMmaUs3C6Pm4+LM/rmh3R0U6jK5lJOLmWFoqWRi9kg7eXMtMlDAyVheun8TCxEoqWRg9C1MrLtw4KWFkrPIMOrl8L4oEU60ZuXk5EkZCCCFhJISQMBJCCAkjIYSEkRBCSBgJISSMxLNlOPU9IR5+VC5ZlcYf7CT7UV8gcwPvefkRMDic3Ae+WTwLO9WgasB0Dj6rJ6fkbuHDsn5UdmvIsN+vod7n17JXD6VmyRr0/jERg5SFhJF45lHE2XUbOaFTAQPXNoURnVmYli+HuLBvGNamDUE+9WjSeACTl5wgTX2cVU1i8ydfse2GKrtdSBgVOnmn2bjuJHqLajQItIOr2wjblVVogvLqmrG80Wcef9rU5/VhfWhaIpZlQ/sycknCI3cvikaDenkN0z7bS7rseSFhVLjoY8IIO2HAIrATI3s3wJYbbFuzh0LRHBmusGnBFpJKvMTEBWPo//abjPlpMiEeqexaFs7VR0wjk+od6FTFhAu/TGXuvuxnsAI6srMKWEi9jhzdizMQTElJkTASD4wiYtZsJFZvSZ2OjfEKbkqgrUryljCiCmod1AxOr/qS91q1pJ63P7X9OtDng4UcvKYvsKtJPrScKd1fpomvPzV9mtCp+zRWHU1/hI5GT16eCtb22JvdShQbbKwUVFXlkQdb5hXp9Wl3ynKahWMXcDz34f5ZXvwefv6wP51q1MPfszb1a4cwaNwyDicZ7gmebe/Wp6r/FKIz4ggd24uWPoEMWXYdNe8oXwZVo2bvFRxaNIYuVerg71kd/wqtef39ZcSkG0g7spxPu7YnqExNavg2I6T/PPZeNe7AioyMpFWrViQnJ0sYiQeduP8i7I84DDZ1ad3cCY1dPZoEWaPeiCR0e/o/5m5ivhnI64PmseU0lGnUguYBTsSvmcabr80j5p48Uknb+QV9Ok9kYUQ8VlUa0qplJSyOL2d8l/dZdk7/kFXhSpPOtbCK/Z15q+IxqOkc+W46S05aU7tjECUeo2osa/VnVA8PdId/YMqPsTxoSQyX1jOy3QCmLzxMpkcdWnVtRjWnJKLmfUzvjpPYnpQvEtUUdn40kPHrc6nYIYTmlS1RboVa9De8M2IbamBX+g4OIaBYEgcXfcKgnkPo2+Vzokxr06lfVxq6ZxCzdhbDRm/EGKe3boVQq1at8PT0xMvLy6iW30SS4Tlk0cGNbDpnwKZ1K4IdFVBsqd8mAOv14exYu5u0Ns259Rh2w9nfmDzjABmuzRm/eApdfC0AyD61guEhE9mSBza3X/go80f9ysm80nSe+x3j2pbCFFBTjzC/99t8tdOA8lD1qcG9+1iGbuzBpJEDGbAkmwMHFII++o6Pe3o83hlMsSFg+Ie0D3uXNV9MY2Xrb+nqeZ9XUlPY8ulUwuIdCPp4DjP6lsdK+btDPPrl2/SZvoxJX7Ym4JNamN/6J4kbWBzzJnO3D6Ka7c0YyrvZ513Ppvyni/imjzdmgNqvCoODxxGxezdOQ35kyahqWCugDgpkbKMhrNm9m2N5rahvajwhNGnSJCIjI2//vzFjxsickXiQXA6v2cxl1Zb6HYOwUwAU7Bo1o461StrWMHalqLeHXOfWrufPbGsaDB/DyzeDCMDCpxOj362DhXLXsObAejacMeDc6X2G3wwiAMXOj96fdsf3EQ6u7ItnuGKwwMxwgT270gicuoAvBlS7ubyPR3FsyHvjmuGYtotZE//gyv1GQ6k7WLcxGW31nozofTOIABRrKg96j85ecHntH/fcoqCqdjQe0vtOEN1F69KGfj3+DiIApVg1qntrUayC6DWoKtbKre1UjVqVTFCzsshSjSOEbnVCdwdR9+7dja4rkjB6HnIOErohHtU+iNYNbW8PJRTH+jStZ4maupPQiLSb8zK5nP4rFr1JBeo3cELJt+tKBNXDx+TOXFFSzEkSDebUaOx/p1u6dUCWq0dAqYfZ3QYSQyfRo+UIwoq/zaLoX3m3Th7bPh7P0tO5QA67przF4BGrOat/9HIr3vED3mlsS3LoTL4Mu1Hg/JP+zHFOZSu41fXHXZvvh2aVqVPLBjXpNCfj70ozbRkqV7EsOASdnXG8+3UUU8zNFTT2LrhY3bVVFTPMzRWjDSFj7opkmPYcZEeFsTXBgEG/nnd91xd06LB7zQ5SO7TBnmwyMvSoGgccHf8ZJJriJXDWQOzNv2elZ6Iq1jg6mv/zZbXOuBTXwpUHRNH5pYwesoTEoE9Z/lUHXDRQ7ruJnGg3nGlvTMV1WTv2rNlFpE0N3n2s058bnT5+m3Utp7Fuwmza1R9L/gcDG9IyyFA1uDrZF3C21GLvZItGTSft7pueFGtsbO4XJAoF/kRRjK5+7hdAd6tUqdJDv15GRoaE0QsaRexbE85VgznlWnch0CPfoaa/xM5fwzm7PYzI5Na0c7TE1s4UxZBCcrIBrO79fTUzkztXsBVs7GzQqBncuJEL5BuTqVlkZD7oKpFKUsQWDmTY065HK1xuvp3GtQXjvztO7CvzGd52G0qigvtbdSmtfbytoC37CqOHrOfVqSuY+mVbFlTLP71khZWiknYjrYDOSU9acjqqUhxra8XYs0VIGD0nmXsJ3ZiEatOIvp+PpINzvqNHTWLV+SjGbYkidHMybbvaU86vLNrVMezccYNXQ5zvOsOrpO2N5rj+Thg5VCpPSc0eDkXsJ+OlYKzv7jYSDrDvjAFc/j2MdDodqqonJ0sHd2ZZsK4ziM/HHiFkbBTpVrUZ0tPvCYrHFN8Bo3j9917Mmz+VH/sWyxdWFShnbiBy734uGfy4Z55bd5zo/eng6IOvmwbQv1AlFBoaWuCE9d2OHTv2wDkja2trmTN6kWVEbmBbkopNcCuCnQo4jStONGxfG0sy2bNmGzdUDZ5tWlPdIoPIz6aw+vSdx47mXdzCZ9O2kHpXs2NSrTWtymm4tvILPguNv3UxCbLOsnLc9+zLVh9YDsX9KuKiSWPLl3PZn3Ln97PPhDH/lz/JUAGyuJ70hHeLW1TlzU+74qWP4Zd5u+/5bJ1i34A2zezRH/iZ6T+f4vY7qSkc+moGy2NV3Dq0pabZi1lHQUFBhIaGEhoaSlBQ0D9+PmnSJOmMxL9JZ/fqSJJVW1p0bIB9wZMYODZtQR3r7WzbtZFt1zrSqXQII4Ztou+UMMa1ieH34Jp4mSVyKHwPF0sEUKvUHmJuNxyV6DO5BxE9fmJ5vxAO1q9L9VIGzkft5EBSGQJqZbPn6gN6lto9Gdw6jDHrf6Bfw70ENyqP5ZVj7I06zhWlLF1m9cX867F8338i5dZNpbXr45/PrAMHMrxrOEMWX0a9e1ipONBy7HDCosexefTrvLy2AbV9LLlxZDc7DySCTzfGDfPH4gWvqFuhlL9TWrhwIWPGjDG6K2rSGT0jaspOQremgkMQrRvZcd+pVudgWtS3gsxoQjcloWJOpcHf8vPsPjQtk8eJzetYF34RuxbDmPPbe/jfc61dwbb+MH5YMY7XGpYg7eBW1vweTZJ7Oz5aPpvelc144LSKxpX23/7M18Pb4md1kR0r1hIRk4VHm7eYsf4Xxoe0ZfAnnXFN3MCEN7/n6JN8fkWxJ3j0+7R0KWBy3rMDn637H++/6ofZmR2sXfgH0YlO1H1zPAt+H0UDJ5kg+rdOyRi7I0VV1ce+o2LAgAHMnDmz0K7cjK1Debn2O1KtokhYET2L95s8+Hi71SnNmTPnvt3RrTmjp3k1bejQocyZM0eGaUKIezsl+aCsEKJQsLe3lzASQggJIyGEhJEQQkgYCSEkjIQQQsJICCFhJIQQEkZCCAkjIYSQMBJCSBgZGxOtGXkGnexlYfR0+lzMTMwljIyVp6MP2XmZUsnC6GXrMvBw9JUwMlbFrEuScCNWKlkYvYSU8xSzdpEwMlb+Hg05mXBAKlkYvROXo6nl0UjCyFhZmdkS4N2Mvy7skmoWRuvoxV3UL9MaC1PrIr2eRf5qmr97Q7wdfSSQhFH668JOyjhVoIZ7UJFf1xfiSY9VXOuQk5fJH4fmU65kTVztvbEws8ZUaybVLgoVnT6XbF0GCcnnOJmwn8DSrajo4v9CrPsL89hZf49GVCpZi31x2zibeIjz10+i0+dI9YtCxVRrjpeTL05WLvStO7rID81eyDACsDS1IahsW6n4p+i/eLC7eDHJHdhCCAkjIYSQMBJCSBgJIYSEkRBCwkgIISSMhBASRkIIIWEkhJAwEkIICSMhhISREEJIGAkhjNIL9an91EwdO/5K4FpyLifjbqDTG6QCntDgL8IBGDFnr2yMp8DUVIuvuwPF7c0JquqCjaWphFFRE3kkkYhD8fhX9KB2VQ8a1jbBxEQr1S8KFV2enqzsPM5eTuKLZX/RuIYbQX4uL8S6vxBhtO9EEldS9fR5KUCqXRTuzshEi6mNluq+blT3dWPXwbPsP3kdf1+nIr/uRX7OaNvhRM5fy6Vu1dKFdyHVyyzqYoVvSRMqVOhOWOq//K4hlp9esqZ8SRPKl+/F1txHfzv96Wm87GFBq0n70P/b7x35iDbuFnT4/Mi//h4AeYf5qrEFvl5dWX/fr6rTc/rLOlQqac2ApTee3/Y2xPFLJysqBnzAgUL+HZ+BNcoQeyWbHUcSJYyMWWqmju1/xlO3qrfRLLMhdRNhkfdPI8Pl9Ww6mIv6tIcH24bRrk5lxoamS3tSyNSrVpqtB+PJyM6TMDJWO/9KxL+ihxHtDVtsrVLYsX4LBUeCgYRNv3NYZ4ONzdPddWrWNS5dOM/1jDsxp63wAb/sO8uCtyois2vPV82K7kT+mSBhZKwSb2Tj7eZoRBMG9WjUyIG08FXsTi+wLSLijyjySrckuMwziAdTO5xLuuFkYyJp8JyVKeXMleSi/QUSRTqMzlxKwcrSmL6OyJZ6bVtgm7qRjZFp/8yiK3+wKToP71YvUSFfPugPjqaluxXdvjvDvTcs5HFkUhUqetRlzukCZn7URJZ2s6ZKr0VkqNlsHuSIr2cLFieq6I9+TPuHnTN60s4sPYYN07vTrb4b1b0dqFunNv3Hfse+hPxDE5W0Y4uY0T+YltWc8fOwonolHzr3HMbSQ9fzDV8NJB+ax6fdaxLsa4ufjxftu7/PiqOpGNtNHZYWppy6kCxhZKxydXpMjeryvYJ1UGca2N5g+x/hZOQ7CJM2/86BvLI0bV3t6V0GVeyp8/ZcJvWri4ViSuWe3zLtiw+pZ688u9XO2MPsV4IYOnM1l2wDaNE1hAD3dPb/8A5vdOjJmrg7UZjz52R6d3iDuRsv4FCrM1169qGFvz3x4V8zLuQ1Fp833N5eqTtH0bPz2/wScQHLKm1o3bIGFsfnMbbLqyw5pzeqWjYz1ZKbpy/SYST9d2GLI9smtGxsz4atK4nK6EBT6zsdTMQfO8n1epvmfiZEP7V3tMC7YXfcssKYPP8QrgGv0ull20uhslAAACAASURBVL+7rcd5ubwDLB7el8gCzwEqqcfO5+tKdBz95i3+d9BAzeER/O+9WtgpANnErexPr3d+Y/LHHQj8vhvFFB1/Lp3P0SwPOi+IZnJzZ5SbS3ppQRvajIpkc+RVXvVyQdHt5/tRsziRV4Euc9cyoa03poCaGs3c3u2YuVOP4iX1JmEk/rVTCWzbDJs1YYTtTKdpC5u/D+OkUDZF5eD+xktUNuEphtFTpj/P3uU/8e/3Y5vflUVRrFp6DEP5kYwdfCuI/g5Jz5cm02/xSiZGrCAqtRvt7DW4tZ/C9Fpu1Gx8K4gAtLj4lMdeE0l2Vjbq/9m77/ia7j+O4697s7fEyJRoSAhiBDEiiBkxq0aNaquUtjpoS2tUKUpRbX9dtFq0Rs1YkQgJYofYUiKIlQQhe997fn9YkYZKBcnN5/l49PGo6zr3jO95n+/3e875fgFN1DI2xWqo1HsGn94JIgCVZROGTh1JUMfJnJHSJmEk/qXnyLcXPuaridi4g8yOXTBF4VZYIAdynenX2Qt94p7PimUcI+Sv7SQUqDLpu3bm5XZu9++2Gb3I3OiVdDEtMqk4+01zus84eb9X5+ohTiRqMXLK5vT6pZwt9P1remaosmOIvZQPVvo4Nu2HI6Dk3uTK3zFcjDvPpdjD7PzrT65pwOlOX1FS9DEStSa09fPFvNBa6NVoTzPHqZxRpKxJGIlHs2xPx1YWhIStYX9mF/xMktgZtIMchyF0aPj8OuS1KRH8OWk0+ws8KGjU1YHeBcOomJTUm6QqCpn75jB230O+pGdJZubt5NBe28Fvkz7mt6DDJOUABuZUcvagtvMLWMRE32sOZqWno6gssLY2LmJ5VbCrrAfXpKhJGIl/bar5dG2HWVAwW/Zk0KZxKKG7s7Dr24N6BsXtzFHIyyuZx4zVDu/wx6V3SnZbTc0xVamxfW0LYTPa8MjXQjWnWfRmD2YdtMZ35EKG9WqLp6s9pvqQHzkG/513w0iNmaUVauUUt27lAIUCXMkkPVNeki51YaRSPdldk/nz55dsS0DmbAdUWLbpRXOzQHZu2kFi2lr2ZTnQPaAphv8SPLl5hZ7OVm4QE30VLaXzeSs9R0/cLSE6+iiJ2jY4Fby/q9zk4KLZhN1oSO8P+lDt6mZCDmVg5j+PuZ/0w6LgV3OyyFHu7z/r2vWwV4cRtT2CjJ4BmBWs4SXsIjJWA7ZS0koTGc+otMaRZQc6+Zpzc+vvzF0VRmblADo2Nnr4PzA2wViVz/ndO0nQ3u9zub7tC37fk/3Yr48o2mdcYzBuTbduVdFGzuKLxafIuh8ZJG3/jAkTZ7MyOp8KeoBKhRrQpKeSVWCDNLf28/v/VnFdCyi3/0K/fj8619DjxppPmBF8kXtPK2VFs2riTCKzpcOo1NWMFOW/H5Thw4czd+7cElkRMzMzORoPpJE1vl38MAkKJDBMRZVXetLwEVmkVyMAvxoz+Gnnhwzsc4huze3Jjt3G5o2R5FWoiPpfnpdTGZtirMrlyJIJ/HS9Bb6D++PxTDbUlGYf/4++u/qy/NMWdFnXldaelcm9uIuwbUdItunC5PF9sFEBDl0I8J7MoZ1jeGXwMTp7VSb36lH2bg4j1bUmtnpRnFk3i8Vuoxjk58XQ6e8SPmguK4Z6E+XTjgaOGi7uC+VgUk2aN85k73UpZlIzEo/XVPPrRTNzUFR2tA7wwfhRXzdoxDuLlvN2l3oYxKxkwZzpLAo8hkmnr/nfxy34tyG6DLyHMbxTLbRHfuX7/63m7DOsOagqBjBpXRhThrahwqUQ1ixaSPhp8Og9nXmb/qKvq/7dxGXA/PV80scL/ZPLWfjzb+yM0aPZpAjWrf6DdwNqoBxfxPzAU+ShwtJnBotX/8Cg1g6kHV7HusCd3HAawORVgbxRxwiVFLLSVeKVJ6gaPY2aUUn2GY2dd4D3BviWw8OqkJ+WwPUcK2wrmcoVR0d8tzSCmcO9S+35NmrUKObNm/ffm2lyiHWzVqVvYY+9hewJIc00IYSQMBJCSBgJIYSEkRBCwkgIISSMhBASRkIIIWFUruXt4ctmRrjb6ePRaiInytosNnmhTPA0pE7vn7kmr4kJCaOyK/fQSrZcuj2WiObcWkJOFDVMSD4nvm5D+xYvsype+xifPx3KrRWM8XGn19QI8uXQCQkjXZJNVOA6EhRrmrZtirHmLCHrDxdxoivkJF/hyqV40vMf5/OnRJNG0qULxN/Kuj96gEErxmy7QPgvg6kkL4kJCaOymkW7CAq5jGIdwODJg2lkpOHS5tUcf45TNWvy8oo5/Y8RllUcqGJdMu/OafNz0ch4aRJG4tnK2ruSbYlg074vPtUDaN/YCO3FQIIP5xZoxwUyurop/eefR5O3m+lNDKndfipnsh7y+Z3RIx9v/rJcIj50wMNzBNvPbeCr3tXxcjGltktl2vh1YsLCA6QocHvMa2/q1B1ORK6WpCUB1LG35IONOZAXzucN/9lnlB8fzu8fd6Zrw0rUc7bCu4k3Iyb+wpGkB5MmY3UvPJ3q8fX+E6wb44NvDTNqV7WkmXcThn32J2dkjD4JI/G0pbMvcCNJ2OLX0w9TtSN+nZtiqL1A6IYD3Ksc6XvRf9Z8RrSpjFrfnW6TFjB9TA/sDB/yuZpizV92u4Z2kB+HDGTJRRc6vjGWYQN8Mb8azspx3fh05VW0qLHtNInp017D3UCFefPRTPv2ZwY0KHpAE+2VZXzUNYAZS/aRWbUNAX1epIHNNfb8+jav9HiPHUmFerqVZPZM7sm4tSnUenEUw98aSB39M+z85Q2GfbaZNOkYlzASTzOLwti89Toq224ENDcF1Nh16IGngZb4zau4VzlSO9Ok1yBau5ujUlXGs+sr9OzoiaXeQz5XPTh/2abNa/lq1ny+XXOYtd/3x/bqKqZPWcmNAie4knaU00bvsmDLNmZ9MZUPv1zDysXvUU19k93BO8lEhYVHF3r0aI6tSoWRa3t69h2At1MRxU65SejU0QTHV6TVlB1sXLeKGXMWMj/4OEvHtMAg9hemfLOLByZ41lzlRKwrHwbuY8Hcrxg94Sd+3biI7rYKiVvWcVR6yyWMxNOTtmMl22+psPXvQ+M7o62pnbrSoYEB2vj1bI7M/m8Lvjd/2btFz1/W3JBb21ezL7Vg6alIh/fH0rjC/R5ok4btaWSpQpOZTrHGZ0sNYf2WG+g1eJ/xr9fD9O4iVRbUfWc6fVzgyoblRD3QL6aHY7/PGFTn/mREKhs/fOoZomSmPzA0rSj9ZDyjskRJZte6YFJVVeneo8X9qRDVLvj5N2R25EHCNuzhE5+2GBVz0cWbv+xuFtSkTt1Cs5KpjDA0Kv6maWKPEpOtxrFZK5wKz3tk6IV3Y0sWrjvB6XgtzZ3vXkMNqFmvXqFJCowwMpSiImEknm4WpQQTtCMZreYWi3uasbiI7ySGrOLg523xMS7msos5f9nd4DE2Kpn78tq0VDIUNfY21kUMB6tPBRsr1EoqaWna+xV6lRpDYyMpGBJG4hlHEclbV7I7VYVVg3708LYt1MbOITbkV3Zd2sjmvbPx8TMt3uKLM38ZuSW+dSpzC0xVCqm3UoqqN5GanIqissfMTHoWJIzEc86i62xfH0aGypbeY+Yxoa3ZP07YC7ZRdJl6kPANO8ny88ekGIsvzvxlrk+h1OhVr4ebkYYdByK4rG2CS8HfzzvCgUOpYF0XdwcJI10lR7bMZNFGNu1Kv30XrUVR0zrpUbVzL+roKySFrmJ/5gONIJQiHwgs8Hlx5i/7r02xR8zJprLyp2t7GzRR3zBj8cn7v6/cJOrbsaw4r+DYvT+NpT9IakbiedJyPWQlkVlq7Prev4v2jzhy6Umn+p9xNCqIoF3ptOlojJGJCWhOsmHOVDTN29KzX0sqqVVFfv7Y85cVtwlmZIqRnkJqxPd8/d1JvDp/QIdqhb9UkU4TZtMhchhbxrWix4aOeLuZc/P4VnZFXQa3t5g02hdjKQxSMxLPM4uusHX9LrLVVWnfs8XD75TpudKhSyP0lRvs3BBGBvrU6vsh3eqYErv2S376K5JU5fY1qKjPH3v+suIy78Tgt/1wTNvOojlfsz2u6AeA9Jxf4euNGxnTvzGGsSGsW7KcyMTKtBj2E38GfkMrG3mJTZfJvGlClBG6Pm+aTteMDA30yM3TSCkWZV5ungZDfT2d3kadDqMaTlZkZudKSRZlXmZOLtWrVpAwKquqWBkRF39LSrIo885fSsLOSrcf8NTpMPKtZ8ehU5ekJIsy7+Cpy7RqYCdhVFaZmxjg18Ce3YfPSWkWZdaew+fo2NgRUyPdfhJH52/tt/S0pbq9CXuOnJdSLcqc3YdjcXM0pUXdKjq/reXiocdGbjZkZV9jwdr9eHk4Uc3BBjMTAwwN5JlPUbrk5uWTkZXLhau3OHTqEu0bOdKgunW52PZycza29KxCQzcbIo4nEHXyHGcvp5Ajt/1FKWNkoIebUwWqWBvx8cueOt80K5dhBGBmrI9/E6dSu37+/v4ABAcHl5l9KussSoq8DlJKREREPPCfrLOss4SReC6mTZtW5P/LOss6SxiJZ361ftifZZ3L7zpLGInndrUuK1dtWWchYaTjtaKycNWWdRYSRuWkVlTar9qyzkLCqJzUikrzVVvWWUgYlbNaUWm9ass6CwkjHa4VDRw4kFOnTt37u1OnTjFw4MBSd9WWdRZPk04PO1ua+fv74+zszPjx43FxcSlyH8TFxTFt2jQuXrxYKp4WlnXWHaVx2FkJo+cgJSWF5OTkeyfHv+2DuLg4KlSogJWVlayzjq9zeQ4jeW39ObCysipWgS98Msk66+46l2fSZySEkDASQggJIyGEhJEQQkgYCSFKpVJ3N+3uLcfyTPaBkJqREEKU95pReXnyWgghNSMhhISREEJIGAkhJIyEEELCSAghYSSEEBJGQogySMYzEk+kLD8tLk+6S81ICCGkZiSeDnmCXkjNSAghYSSEEBJGQggJIyGEkDASQkgYCSGEhJEQQsJICCEkjIQQEkZCCCFhJISQMBJCCAkjIYSEkRBCSBgJISSMhBBCwkgIISSMhBASRkIIIWEkhJAwEkIICSMhhISREEI8QrmaNy0jN5VDl3aQlHmNi0mnydfmSQl4QlM2vAnAnLBRsjNK4oTUM8TZ2o2KprY0dm6DqaGFhJGuOXgxnMiL4bjZe+Hu0Jh6zr7oqQ2k9ItSJV+bR3Z+JgnJ51m4fybeLu1p7NxGwkhXHI/fz7XMBDrXf11KuyjdJ6TaAHNDK2pUaUCNKg04cWkPJ+IPUNfeW+e3Xef7jCIvhnMp5Ry1HZtJSRdlTt2qLYhLieXQpR0SRmVZRm4qBy+GSRCJMq2OYzP2x4WSlZcuYVRWHbq0Eze7RlKaRZnnZuvFwYu6XTvS6TBKykjA3qqalGRR5tlbv0BSZoKEUVl16VYMRgamUpJFmWesb8rFpDMSRmVVniYXfT25fS/KPn09Q/K0uRJGQgghYSSEkDASQggJIyGEhJEQQkgYCSEkjMSzpY35hb5VPaljVw+/j3aTXdwFZG7mAxdPmo4M519v+mrjWfJiQ+o1/YrDz2rklNxtfFzdkzoOrRkdeAPlIV/LXjcKL7uGvP57IlopFhJG4plHEec2buF0ngJouREaQmRmaVq/HC6G/MDogAB83ZrT1m840/86TZryXzY1ia1ffMuOW4ocdiFhVOrkn2XLxjNojOvTsoUlXN9ByJ6sUhOU19dP4NUhv3LM3IdXRg+hXZXzrBz1Bp/8lVDs2otKrUa5up6Zsw6QLkdelPUwSklJ0akdr4kOIeS0FuMWL/LJ6y2x4BY71u+nVFSOtNcIXbiNpCo9mbxwPG++NYzxi6bTt2oqe1aGc72YaaTfoDsv1tXn0h8zmH8w+xlsQB7ZWUWspCaPnDxpCEoYPaHk5GT8/f2JiIjQhSgiev0WzmtM8O7hh0urdrSwUEjeFsK+oqoOSgZn137DB/6daF6tEU08uzPkoyUcvqEpslaTfGQVXw58ibbujfBya8uLA2ey9mR6MWo0GvLzFTCzwsrwbqKYY26qQlEUit3YMvLgtakDqc5ZlkxYyN+P+VZDfvx+Fn/8Ji82bE4j5yb4NOnLOxNXcjRJ+0Dw7Hjfh3qNviQy4yLBE16jk1sL3l15EyX/JN/41sfr9dUcWTqe3nW9aeTcgEa1OvPKhyuJTteSdnwVU/t0w9fVi4bu7en75q8cuC6BJWH0CC4uLjg7O+Pv71/2QynvBCFBF9GaN6NzBxvUls1p62uGciuC4J3p/+i7if7hbV5551e2nQXXNh3p0NSG+PUzGTbgV6IfyCOFtN1fM6TXZJZsj8e0bmv8O9XG+O9VTOr9ISsvaB6zVNjTtldjTM8H8uvaeLRKOsd/+oq/zpjRpIcvVf5DqTFp/CafDqpK3tHf+PL38/zbmmivbOKTrsP5aslRMqt649+nPfVtktj36xRe7zGNnUmFIlFJYfdnbzNpUy4e3fvSoY4JqruhFvkD743dgdKiD2+M7EvTSkkcXvoF7wx+lzd6z2afQRNeHNqH1k4ZRG/4jtHjtiDdW89emRp2dvz48SxZsoSIiAj8/f3x9fVl/Pjx+Pr6lq0sOryF0AtazDv708paBSoLfAKaYrYpnF0b9pIW0IG7w7Brzy1n+pwoMuw7MGnZl/R2NwYgO2Y1Y/pOZls+mN9b8EkWfPonZ/JfoNf8n5jYxREDQEk9zoLX3+Lb3VpULo93jXIaOIFRWwYx7ZO3Gf5XNlFRKnw/+4kpg6v+tyuYypymYz6mW8j7rP96Jms6/0gf54csSUlh29QZhMRXwHfKPOa8URNT1e0a4slv3mLIVyuZ9k1nmn7RGKO7/yRxM8uihzF/5zvUt7gTQ/l36nk3s6k5dSk/DKmGIaAMrcvIVhPZvncvNu/+zl+f1sdMBco7LZjQ5l3W793LqXx/fOQda6kZPap2NHDgwHt/vhtKZaumlMvR9Vu5qljg08MXSxWACss27fE2U0gLC2FPinKvyXVhwyaOZZvRcsx4XroTRADGbi8y7n1vjFUFmjVRm9gcq6Xiix8y5k4QAagsPXl96kDci3FyZV+O5ZrWGEPtJfbvSaPFjIV8Pbz+nfX9b1TWrflgYnus0/bw3eQgrj2sNZS6i41bktFrMJixr98JIgCVGXXe+YBeLnB1Q9ADjygoiiV+775+P4gK0LMNYOig20EEoKpUnwbV9FCZ+vLaO/UwU93dT/VpXFsfJSuLLKkZSRg9Tu2osDIVSjmHCd4cj2LlS+fWFveaEiprH9o1N0FJ3U3w9rQ7/TK5nD1xHo1+LXxa2qAqdOiq+DbHTf9+X1FS9BkStUY09Gt0v7Z094Ss0Zymjo9zuLUkBk9jUKexhFR+i6WRf/K+dz47pkxixdlcIIc9X45g5Nh1nNMUv7hV7vER7/lZkBw8l29CbhXZ/6SJ/ZuYbBUOzRrhpFfoLw3r4N3YHCXpLGfiC6SZnit16poUHYIVK2JdcDkqA4yMVKitbLE1LbBXVYYYGakkFcp7M83MzOyJl1G4+VYaZe8LISxBi1aziffdNxV16rB3/S5SuwdgRTYZGRoUdQWsrf8ZJOrKVaiohvN3/pyVnomiMsPa2uifi9WriG1lPbj2L1EUt4Jx7/5Fou9UVn3bHVs11PhpMqe7jmHmqzOwX9mV/ev3EGHekPf/0+XPgRenvMXGTjPZ+Pn3dPWZgFfhdUjLIENRY29jVcTVUg8rGwvUSjppBR96Uplhbv6wIFFR5N+oJHgkjMqtbA6uD+e61oganXvTomqhU01zhd1/hnNuZwgRyZ3pam2ChaUBKm0KyclaMH3w+0pmJvfvYKswtzRHrWRw61YuUKhNpmSRkflvd4kUkrZvIyrDiq6D/LG983Nq+45M+ulvzvdbwJguO1AlqnAa0YwX9P7bXtCr3o9x726i/4zVzPimCwvrF+5eMsVUpZB2K62ImpOGtOR0FFVlzMxUki0SRk9PRkbGI/8+Li6O2rVrF/l3hTu0D4StKV0bl3mA4C1JKOZteGP2J3SvWOjsUZJYG7ePidv2Ebw1mS59rKjhWR29ddHs3nWL/n0rFrjCK6QdiORvzf0wqlC7Jnbq/RzZfoiMnq0oWNfUJkRxMFYLto8Oo7y8PBRFQ05WHtzvZcHM+x1mTzhO3wn7SDdtwruDPZ+g8BjgPvxTXgl8jV8XzOD3NyoVCqta1DDSEnHgEFe0njzQz533N5GH0sHaDXcHNaCRs1j6jJ6PadOmFRlCwcHBBAcHl+o7axkRm9mRpGDeyp9WNkVcxlU2tO7WBBMy2b9+B7cUNc4BnWlgnEHErC9Zdzbn3lfzL29j1sxtpBao7OjX74x/DTU31nzNrOD4uzeTIOscayb+wsFs5V+LQ2VPD2zVaWz7Zj6HUu5/Pzs2hAV/HCNDAcjiZtITPi1uXI9hU/vgoonmj1/3PvBuncqqJQHtrdBELearxTHc+yUlhSPfzmHVeQWH7l3wMpQTWGpGz0lcXBxLlix5aE2odEtn77oIkhULOvZoiVXRnRhYt+uIt9lOduzZwo4bPXjxhb6MHR3KG1+GMDEgmsBWXrgYJnIkfD+XqzSlseN+ou9VOGozZPogtg9axKqhfTns04wGjlri9u0mKsmVpo2z2X/9X+osTQYzsnMI4zf9xtDWB2jVpiYm105xYN/fXFNVp/d3b2D0vwn88uZkamycQWf7/349M2vxNmP6hPPusqsoBZuVqgp0mjCGkMiJbB33Ci9taEkTNxNuHd/L7qhEcHuZiaMbYSznr9SMnnetqKzUhB5oAKXsJjgsFSr40rmNJQ/taq3Yio4+ppAZSXBoEgpG1B75I4u/H0I713xOb93IxvDLWHYczbzlH9DogXvtKix8RvPb6okMaF2FtMNhrA+MJMmpK5+t+p7X6xjyr90qanu6/biY/43pgqfpZXat3sD26CyqBoxgzqY/mNS3CyO/6IV94mY+H/YLJ5/k/RWVFa3GfUgn2yI65527M2vjz3zY3xPD2F1sWBJEZKINzYZNYmHgp7S0kQ4iXaNSFOU/P1ExfPhw5s6dWyIrcvdu2sP6jOLi4hg+fHixakJzwkbxUpP35CgLnbA68js+bDu31K7fqFGjmDdvnu430ypUqEBwcLCUSCGkmfZ8WVlZydESQsJICCEkjIQQEkZCCCFhJISQMBJCCAkjIYSEkRBCSBgJISSMhBBCwkgIIXQ7jAz0DMnX5MpRFmVeviYXA7VuD+Ck02FU1cad7LxMKcmizMvJy6BqRTcJo7KqooktCSlxUpJFmXclOY5KpvYSRmVVY+fWnEk4JCVZlHln4iNp4txGwqisMjW0oGm19py4tEdKsyizTl7eg49rZ4wNzHR6O3X+blojp9ZUs3aTQBJl0olLu3G1qUVDJ1+d39ZyMW9aXXtvcvIzCTqygBp2XthbVcPY0AwDPZleQpQueZpcsvMySEi+wJmEQ7R4wR8P20blYtvLzSSOjaq2obZdYw5e3MG5xCPE3TxDniZHSr8oVQz0jHCxccfG1JY3mo3T+aZZuQwjABMDc3yrd5ESX4L+bSIFIR6XPIEthJAwEkIICSMhhISREEJIGAkhJIyEEELCSAghYSSEEBJGQggJIyGEkDASQkgYCSGEhJEQQsJICCEkjIQQEkZCCCFhJISQMBJCCAkjIYSEkRBCSBgJISSMhBBCwkgIodP0y/PGx1xO5eSFm1xNyuJ6chaVrU2Ji0+VUlEMI78OB2DsvAOyM4rJxd6S67cyqVzBFHsbEzxdranhaClhVJ4cjU0i4tg1VGo11atWxse5KqbG+piayHTX4tnKzMolMzufq9dT2HIwnuADV2hV35Z6rjYSRrpuybZzZOcqdPCpjbmEj3jOTE0MMTUxpJK1KfXc7UnLzGFXVCwnzqcwoN0L5WpflKs+o+lLjuJWzQH/lhJEonSyMDWic8vauDrb8dXy4xJGuhpE/j4eOFaxkhIvSr2qdhXw83Zj5rJjEka6ZOm2c7Rr6o5tRQsp5aLMcKhsRetGNfgr/IKEkS44GptEdh442VbQuW3L3/0erRz0cbczocfXJ9E84rvZ20fQ8s53e39/5pHffbKVOsq3fsbU7jSDWM0z2AmZfzHSxQCvkRvI1cUakr01adkaTpy/KWFU1u08dg0fr+o6vpV5xGwO5NxDT/4sDgVt5oZWahtlUcuG1dlx7JqEUVkWczkVtVqt453VaswsLND+HcjWh1VFcvaxdWsChhYWGKjk5C5rLMyM0Goh9mqahFFZdeLCTVydKun89cShbWdqcoLQzUU3v3IPBRJ+zYxm7VthIud2meRatRLHz93U8ZKsw67eyMShcgWdL6h61XvQ3gP+DlrHhX+kUQ5HgzaRaOxHhzbW/LNilMmF4GmM7V2fVjUtqFPVkiZeXgz5+Bv2JxZamPYGR/4YxYiONfB+wZQ6rva079qf7zafJfuRa6hwK2IMPasbUr/tB+y8fre9mM/1/T8weYAXrWtaUq+mC/49B/P9xmgylMKLSCNm7XhG+tegSTVzGnh6Mvij74m6oSkXYeRYpQLxSVkSRmXVjZQcTI3LwXOd6pp06FwXTq1l6/lCJ2deJKFbLmPs0xNf68KHW8OFRb3pO+RzNp42wKPTq/Qb2Bdv+5sc/PNjhg36kui8+6F1+Ct/Xh3zI5EZrvj2GUafrl4Yxazhh2Gd+GLbLZSHBFHqgSmMeOMbYu1fZ86SObSqrAa0XA18nX69P2DZoVyqtelPj44NMD2/mv+96cvrc/aQfm+BWZz6oRsD3pnJ1rMqqrfpTaemlYhf/yGvD5jBqXKQR6ZGBtxIydTpbdTpM7WytWk5ecVDD9fOPXD/ehpbNp9l6Ls10bubRYfXEXbVGO8PO2GtCi+URacJ+jOcVKsuTAtZw0sOd8JKuU7QiPqMDlrPjvOf4uGu589B8wAAIABJREFUB9nhLFt4jFz3D1kY/CUN77T3siLH8OKLc9m8Iozx7V7CtHC96/jXjHxtGiesX+arZT/Q3v72milJK5kx7i/iHQYxd/U8OjvdPk7a5L388GoXfvj2HRZ0OsD7ngZozv3MF3N2k27fiy+WLaSP++1fyY5ZwOi+b7M1H8x1/AibmRpSsYKp1IzKqrj4lHLTp6Dn1pP2NeHvzeu5dK+mkMeJ4I1cMfSlQ9vK/2yiqWxo+cFvzP55JgEO6gc+r+5mh0rJJivnTvUkN5n0bAWVkRlmBS5hJo0n8Hv4UVZObItRoRpRzumf+WDQOA6o/Zm49Fe6VNW/93fXN/3O9mQr2n8yC3+n+xcMdYXmvDnmFey10WwJOoEGDRc2LONotgWtxnxHb/f7J6Sx2+tMfL81xuWkU17XX+Iu12/t61YaedDB34Mfv11L6IXRDKuuB3lH2BpyHsNmH9G6UhFnrNqOel36Uw/IS71M7LlYLl08z4VT4axffAINte5/19yXdr42hG39ggHtDtClewDNmrekkVdt7N1q/7Nxdm0tEwce40SiBoziuZ5ZsBGXx99HjpCrrohBYggbVj+4bkpqJmYqDXExMeRSk5gTp9HoN6JlyyqFAlVNFd/2uOuHc05KgISRKD1NtRqde1L9mxmEhpxjyNtucDKQbXGGNH4rgEoqyCuqP+foL3z12ZdsiLxMlhb0TCrhUKM+1V1s0Sv4apTamV4/b8fk+y9YuCKIFXOCWKaoUBnZUsd/BO9PHEPrAjUcTfxhop37MXGqHr9MWspvn/9C9xUjcdEDyCU1OR1t/g02fv4qGx+yRYaZ6WRps8jIyEdRV8TG+p8Veb3KDlRSI2EkzTRRquKoZg86uGk5GbSey5p8/g7eQJx+c9q3s6Wolow2YQmfvDySVWed6fNVEOujkjh+Lp5toZsY18XpH/9GZeZBwNilrDh0jb27dvHzN1MZ1KoCFzZM5u0Bkzla4BFodUV/Ji77jUFDpjOqQ0Wy9k7jq7VXuX0fzQBTMyNUBn5MOpzLmYT8Iv87sXQINmpTLCwNUWlvciv5n09tKpnpZMrDnBJGorTVc+vQvnNNtEcD2Xb+KKHBZ9Bv3BM/26IPc8au1exK1qfJh38yblAHajlYoq+6XWPKzs5+4O6YJnYNP301hSV7ElEwpEL1ZrR9eSwTF+9kakAF8s9vZd/F+7e11E4+eFczBLUj3SZ+QiOTG4TNmExEigIYUKO2B/qaM0T//c/b1ZrY1Xw/ZRx/7k1CwRB3Tw/08g+za9f1QnfsFFIP7CBaI4dewkiUulZ3zc49cVUOEfTtd4TG6tMwoAtVHnKUFZUaFQoZqWloC5zgGX8v5Mdlp9CioNw9+7OOsem7L5g15y/iCrb3chO4fC0H9KtQqULRP6RXfQSfvumJ3pXFzPx2H1mocerSn0bG8az/YiK7Cj4rlH2KP8e9zffzN3LdzBIVejgH9KOhcRo7Zn3A2rP3wyv/ciAzZ64jVWpG0mckSmFTzaMn7V1n8vOqpWDoy8sdnR56xbFo1Re/ShvY/E03hlzsT1NHhRtndhK29SJ2HtVQX71A2Py5eL4zgvYeg+jv8wNf7BxDn3ZB+Db1oKJeEmciNnHgnJbqw0bTsaKKot/ANabu27PpszaApb9/xOK+2xleaygTxq1n8Gf/483WO2jVsRXORkn8vX09++MU3Ed8yxBPg9tXzBfeZNzoNbz25SrGBRxhTauWuBhe5kh4OJer+OHtGM5JOfRSMxKl7fLiSYfObqgVMGjYEz+Hhx9iVeW+fLH0ZwY0r8Cl4O/5ddE6TmU24M0Vh1j66wz61DYjbv0sVh9ORdGrwYD5oUwbHoBz9hG2Lf+JJSu2cNmyDYNnhbHkcz8sHnWL3cKPkeNfolJOJL9MXsgVrRHuQ9fy1++f09U9h2MbfmH52ghuVOnAkG+28+dEP6zuLc+EOiM3sOT7j2nvmsfprUvYGH4ey45f8uvyaTS2lBfudIFKURTlv/7j4cOHM3fu3BJZETMzs9v9GBkZJbZxY+cd4L0BvnKUhU74bmkEM4d7l9r1GzVqFPPmzZOakRBCmmlCCCFhJISQMBJCCAkjIYSEkRBCSBgJISSMhBBCwkinKVdZ2tsUdzt9atUaSMijxtDSnmdRTzNq2ulTs+ZrhP2HycI0Z2fyUlVj/KcdfOT8aZrjnxHgZEz32cf/fZ61O/Olubv0YdNDR0fVcPYbb2rbmTF8xa3nt7+1F/njRVM8mn5EVJ4UPwkjUfR5khpKSMTD00h7dROhh3NRSvh383aMpqt3HSYEp8tBEBJGcjQssDBNYdembRQdCVoSQgM5mmeOuXnJHjol6wZXLsVxs8C0HHq1PuKPg+dYOMLj3pjaQkgYlQcGzWnTpgJp4WvZm15ktYjtQfvIf6ETrVyfQTwYWFLRzgEbcxncQUgYlTMWNO/SEYvULWyJ+OfsodprQYRG5lPNvye1CuWD5vA4OjmZ8vJPsTw4vE8+x6fVxaNqM+adLaLnR0lkxctm1H1tKRlKNlvfscbduSPLEhU0J6fQ7XH7jJ60ZpYezeavBvKyjwMNqlWgmXcT3pzwEwcT8gt/k7RTS5nzZis61a+IZ1VTGtR2o9fg0aw4crNQ81VL8pFfmTrQi1buFni6udBt4IesPpmKDIEkYSQeSYWZby9aWtxiZ1A4GYVOwqStgUTlV6dd5/olNxCVygrvt+YzbWgzjFUG1Bn8IzO//pjmVs9wWI6M/Xzfz5dRc9dxxaIpHfv0palTOod+e49Xuw9mfYERJHOOTef17q8yf8slKjTuRe/BQ+jYyIr48P8xse8AlsVp7+2v1N2fMrjXW/yx/RImdQPo3Kkhxn//yoTe/fnrggwPWdpI/bu0xZFFWzr5WbE5bA37MrrTzux+DWZ70G5yXd6ig6c+kSX2i8ZUaz0Qh6wQpi84gn3T/rz4ksXt2tZ/WVx+FMvGvEFEka1IhdRTcYVqJXmc/GEEPx/W4jVmOz9/0JjbwxNlc3HNm7z23nKmT+lOi19eppIqj2MrFnAyqyq9FkYyvUPFO+N0a7iyMICATyPYGnGd/i62qPIO8cun33E6vxa952/g8y7VMACU1Ejmv96Vubs1qFykvEkYiUfWVFp0aY/5+hBCdqfTruPt6QmVpGBC9+Xg9GpP6uhTgmFUwjRxHFi1iAOP/FKBGdby9rF2xSm0NT9hwsi7QXQ7JJ17TmfosjVM3r6afakv09VKjUO3L/mqsQNefhULTBigh61bTazUEWRn3R67WxO1jE2xGir1nsGnd4IIQGXZhKFTRxLUcTJnpLRJGIl/6Tny7YWP+WoiNu4gs2MXTFG4FRbIgVxn+nX2Qp+457NiGccI+Ws7CQWqTPqunXm5ndv9u21GLzI3eiVdipz8VMPZb5rTfcb9QWK1Vw9xIlGLkVM2p9cv5Wyh71/TM0OVHUPspXyw0sexaT8cASX3Jlf+juFi3HkuxR5m519/ck0DTnf6ipKij5GoNaGtn+8/ZpvVq9GeZo5TOaNIWZMwEo9m2Z6OrSwICVvD/swu+JkksTNoBzkOQ+jQ8PlN161NieDPSaPZX+BBQaOuDvQuGEbFpKTeJFVRyNw3h7H7HvIlPUsy70wCqb22g98mfcxvQYdJygEMzKnk7EFt5xewiIm+1xzMSk9HUVlgbW1cxPKqYFdZD65JUZMwEv/aVPPp2g6zoGC27MmgTeNQQndnYde3B/UMituZo5CXVzKPGasd3uGPS++U7LaammOqUmP72hbCZrS515wqugl4mkVv9mDWQWt8Ry5kWK+2eLraY6oP+ZFj8N95N4zUmFlaoVZOcetWDlAowJVM0mWytVJH7qaVzjTCsk0vmpvdYOemHSSGr2VflgNtAppi+C/Bk5tX6Ols5QYx0VdL7a1sPUdP3C3hZvRREguvpHKTgwvH8dXslZzLB+2VzYQcysDMfwZzPxlIU/fbQQSg5GSRo9zff9a162GvziJqewSFR1XXJuwiMlbupkkYiceLI8sOdPI15+bW35m7KozMygF0bGz08H9gbIKxKp/zu3eSoL3f53J92xf8vif7sV8fUbTPOLaMW9OtW1W0kbP4YvEp7s+KpiVp+2dMmDibldH5VNADVCrUgCY9lawCG6S5tZ/f/7eK61q4O9Gbfv1+dK6hx401nzAj+CL3nlbKimbVxJlEZkuHkTTTxGOmkTW+XfwwCQokMExFlVd60vARWaRXIwC/GjP4aeeHDOxziG7N7cmO3cbmjZHkVaiIOvlffs7YFGNVLkeWTOCn6y3wHdwfj2eyoaY0+/h/9N3Vl+WftqDLuq609qxM7sVdhG07QrJNFyaP74ONCnDoQoD3ZA7tHMMrg4/R2asyuVePsndzGKmuNbHVi+LMulksdhvFID8vhk5/l/BBc1kx1Json3Y0cNRwcV8oB5Nq0rxxJnuvSzGTmpF4vKaaXy+amYOisqN1gA/Gj/q6QSPeWbSct7vUwyBmJQvmTGdR4DFMOn3N/z5u8ei+GMDAexjDO9VCe+RXvv/fas4+w5qDqmIAk9aFMWVoGypcCmHNooWEnwaP3tOZt+kv+rrq301cBsxfzyd9vNA/uZyFP//Gzhg9mk2KYN3qP3g3oAbK8UXMDzxFHiosfWawePUPDGrtQNrhdawL3MkNpwFMXhXIG3WMkNnWSlmJl3nTdJFCfloC13OssK1kKlccHaHr86ZJM01Ha1X6FvbYW8ieENJME0IICSMhhISREEJIGAkhJIyEEELCSAghYSSEEBJG5VreHr5sZoS7nT4erSZyIr+srX8oEzwNqdP7Z67Ja2JCwqjsyj20ki2Xbr95rjm3lpATRQ0Tks+Jr9vQvsXLrIrXPsbnT4dyawVjfNzpNTWCfDl0QsJIl2QTFbiOBMWapm2bYqw5S8j6w0Wc6Ao5yVe4cime9PzH+fwp0aSRdOkC8bey7o8eYNCKMdsuEP7LYCrJS2JCwqisZtEugkIuo1gHMHjyYBoZabi0eTXHn+NUzZq8vGKOmWSEZRUHqliXzLtz2vxcNDJemoSReLay9q5kWyLYtO+LT/UA2jc2QnsxkODDuQXacYGMrm5K//nn0eTtZnoTQ2q3n8qZrId8fmesscebvyyXiA8d8PAcwfZzG/iqd3W8XEyp7VKZNn6dmLDwACkK3B7z2ps6dYcTkaslaUkAdewt+WBjDuSF83nDf/YZ5ceH8/vHnenasBL1nK3wbuLNiIm/cCTpwaTJWN0LT6d6fL3/BOvG+OBbw4zaVS1p5t2EYZ/9yZkMKScSRuIpS2df4EaSsMWvpx+makf8OjfFUHuB0A0HuFc50vei/6z5jGhTGbW+O90mLWD6mB7YGT7kczXFmr/sdg3tID8OGciSiy50fGMswwb4Yn41nJXjuvHpyqtoUWPbaRLTp72Gu4EK8+ajmfbtzwxoUPSAJtory/ioawAzluwjs2obAvq8SAOba+z59W1e6fEeO5IK9XQryeyZ3JNxa1Oo9eIohr81kDr6Z9j5yxsM+2wzadIxLmEknmYWhbF563VUtt0IaG4KqLHr0ANPAy3xm1dxr3KkdqZJr0G0djdHpaqMZ9dX6NnRE0u9h3yuenD+sk2b1/LVrPl8u+Ywa7/vj+3VVUyfspIbBU5wJe0op43eZcGWbcz6YioffrmGlYvfo5r6JruDd5KJCguPLvTo0RxblQoj1/b07DsAb6ciip1yk9CpowmOr0irKTvYuG4VM+YsZH7wcZaOaYFB7C9M+WYXOQ+0Da9yItaVDwP3sWDuV4ye8BO/blxEd1uFxC3rOCq95RJG4ulJ27GS7bdU2Pr3ofGd0dbUTl3p0MAAbfx6Nkdm/7cF35u/7N2i5y9rbsit7avZl1qw9FSkw/tjaVzhfg+0ScP2NLJUoclMp1jjs6WGsH7LDfQavM/41+theneRKgvqvjOdPi5wZcNyoh7oF9PDsd9nDKpzfzIilY0fPvUMUTLTHxiaVpR+Mp5RWaIks2tdMKmqqnTv0eL+VIhqF/z8GzI78iBhG/bwiU9bjIq56OLNX3Y3C2pSp26hWclURhgaFX/TNLFHiclW49isFU6F5z0y9MK7sSUL153gdLyW5s53r6EG1KxXr9AkBUYYGUpRkTASTzeLUoIJ2pGMVnOLxT3NWFzEdxJDVnHw87b4GBdz2cWcv+xu8Bgblcx9eW1aKhmKGnsb6yKGg9Wngo0VaiWVtDTt/Qq9So2hsZEUDAkj8YyjiOStK9mdqsKqQT96eNsWamPnEBvyK7subWTz3tn4+JkWb/HFmb+M3BLfOpW5BaYqhdRbKUXVm0hNTkVR2WNmJj0LEkbiOWfRdbavDyNDZUvvMfOY0NbsHyfsBdsoukw9SPiGnWT5+WNSjMXfnb8sOvooido2PNDHrNzk4KLZhN1oSO8P+uD6FEqNXvV6uBlp2HEggsvaJrgU/P28Ixw4lArWdXF3kDDSVXJky0wWbWTTrvTbd9FamBV1OlO1cy/q6Cskha5if+YDjSCUIh8ILPB5ceYv+69NsUfMyaay8qdrexs0Ud8wY/HJ+7+v3CTq27GsOK/g2L0/jaU/SGpG4nnScj1kJZFZauz63r+L9o84culJp/qfcTQqiKBd6bTpaIyRiQloTrJhzlQ0zdvSs19LKqlVRX7+2POXFbcJZmSKkZ5CasT3fP3dSbw6f0CHaoW/VJFOE2bTIXIYW8a1oseGjni7mXPz+FZ2RV0Gt7eYNNoXYykMUjMqi1zsLXUki66wdf0ustVVad+zxcPvlOm50qFLI/SVG+zcEEYG+tTq+yHd6pgSu/ZLfvorklTl9jWoqM8fe/6y4jLvxOC3/XBM286iOV+zPa7oB4D0nF/h640bGdO/MYaxIaxbspzIxMq0GPYTfwZ+Qyub8v0Sm4u9lU5vn07PmzZ50WEGdPbC1ETq9qJsy8jM5a+QQ0wc7FVq1/FJ503T6ZpR5QomZGbLY7hCB8IoJ49K1qY6vY06HUZ2NiZcuZYsJVmUeVevJeNoI2FUZtVzteb8lRtSkkWZd/7yDeq6WksYlVU1HC3RahXSMnOkNIsyKzU9BxXgquPzlev8c0at61dh9+FzUqJFmbXrcCxt6tvq/HbqfBjVc7XBxAAuJtySUi3KnLj4m1iY6FHnBWud39Zy8QT2gHau7DoUy9XrKVK6RZlxOTGZPUfO87JftXKxveXmdZCPX/Zk274zXEqQu2ui9LsYf4uIqFg+6lu33GxzuXo37ZMB9bhwKYGgiFOkZWRLiRelTmp6NkERp4i7nFCuggjK4btpL7d9gRPnb7Jt39+gUlPNsSIOlS0xNTbE3FTGxhHPVnpmDpnZuVy9lsr5KzdQAW3q25aLPqJyH0YAdV+woe4LNpyLT+P4uZvsO3qDGylZVLI04UJCqpwh4pmoZm/FjZRMKluZ4FDRhABvB1wdLMvt/ijXb+272luUqmc3/P39AQgODi4z+/BpvFMo+7l8kvGMSomIiIgH/hOynyWMxHMxbdq0Iv9fyH6WMBLP/Gr9sD8L2c8SRuKZX63lqi37WcJIlIqrtVy1ZT9LGIlSc7WWq7bsZwkjUSqu1nLVlv0sYSRKzdVartqynyWMxDO/Wg8cOJBTp07d+7tTp04xcOBAuWrLfi5XdHp2kNLM398fZ2dnxo8fj4uLS5H7IC4ujmnTpnHx4sVS+7RwaT9uurKfy4InnR1EJnF8DlJSUpg3b969k+NhXFxcmD9/PnFxcaSkpGBlZSU7T/azzpIweg6srKyKVeD/7WQSsp91gfQZCSEkjIQQQsJICCFhJIQQEkZCiFJJ7qaVQnefg5F1FlIzEkKIslQzcnNzkz1Ygsri0+fl7cl58fTy4IlqRnFxceTm5spREKKcy8nJ4eLFi88vjIyMjMjOlskQhSjvsrOzMTJ6snkHnyiMjI2NpWYkhCAnJwcTE5PnF0bVqlWTMBJCkJeX98Tv9j1RGGm1WhITE+VICFHOJSQkPPEyniiM7O3tuXbtmhwJIcq5xMRE7Ozsnl8Y2draShgJIbh+/frzDSMnJyc5CkIIFEXB0dHx+YWRg4MDZ86cIT09XY6GEOVUamoq58+ff741I4CaNWsSExMjR0SIciomJoZatWo98XKeOIw8PDw4e/asHBEhynEYeXh4PP8wql+/PrGxsXJEhCinzp07R/369Z9/GFlaWmJtbc2ZM2fkqAhRzkRHR1O5cuUSGUKmRIYQad68OQcPHpQjI0Q5c/DgQVq0aFEiyyqRMGrWrBk3btyQIyNEOaLVaklOTqZJkyalJ4wA3N3dCQsLkyMkRDkRFhZGzZo1S2x5JRZGAQEBhIaGyhESopwIDQ0lICCgxJZXYmNgGxsb07x5c3bt2kXLli3/83JkLGUhSr+dO3fi6+uLoaFh6asZAbz00kts3bpVjpQQOm7btm289NJLJbpMlaIoSkm3IxMSEujZs6ccsXJAxsAuf1avXk3VqlVp06ZNiS63xGcHadu2LTExMcTHx8tRE0LHXLlyhQsXLpR4ED2VMAIYOnSodGYLoYO2bt3KkCFDnsqyn0oYOTo64ubmRmBgoBw9IXTEmjVrqFWr1hMPFfJMwwigXbt2JCcnc+LECTmKQpRxx44dIz09HT8/v6f2G091Rtm3336bXbt2yXhHQpRhaWlp7Nu3jxEjRjzV3ynxu2lFGT58OHPnzpWjqoPkbppu02g0jB07lh9//PGp/5b6WWzQ7NmzmThxohxZIcqYzz77jNmzZz+T33omYWRhYcGsWbMkkIQoQzWi8ePHM2fOHExNTXUnjADUajWff/45o0aNkj4kIUqxtLQ0xowZw7Rp01Crn1lEPJs+o8Lmzp2Lj48PdevWlSNfxkmfkW45duwY+/bt44MPPnjmv/1cwgjgxx9/pEKFCvLaiISRKCXWrl1LWlraU79rVurCCG6/bHf27FnatWuHg4ODlAYJI/EcXLlyhdDQUDw8PJ7qc0SlOozu7ogFCxbg6upKr169pGRIGIlnaPXq1Vy4cIE33njjuVcInnsY3RUeHk5ISAh+fn74+vpKKZEwEk/Rjh07CAsLo0uXLk/lpdcyHUYA+fn5rFq1ij179tChQwfatm2LSqWSkiNhJEqAVqslLCyM0NBQfH19eemll9DT0ys161eqwuiunJwcNm3axOnTp6lYsSKNGzcukRkrhYRReRQdHU1kZCTJycnUrFmTLl26lOgIjTodRgUdOHCAvXv3kpSUxAsvvECNGjVwd3fHwsJCSpmEkShCamoqMTExxMTEEBsbS5UqVWjRokWJzeJRbsPorvT0dI4ePUp0dDR///031atXB6BKlSpUqVIFOzs7DA0NMTIywtjYuFQmv4SRKKmWQ3Z2Njk5OeTl5ZGQkEBiYiLXr18Hbs/wWqtWLTw8PKhfv36ZGVe+zIRRYfHx8Vy9epWEhAQSEhJQqVScO3eO3NxcsrOzcXZ2JiYmRkruUzZ//nwA3nzzTdkZz4CbmxtxcXEYGxtjYmJCtWrVUBQFOzs77OzscHR0xM7OrkxuW5kNI1FKCtCdGwxSjMSTUssuEEJIGAkhhISREELCSAghJIyEEBJGQgghYSSEkDASQggJIyGEhJEQQkgYCSEkjIQQQsJICCFhJIQQEkZCCAkjIYSQMBJCSBgJIUQJKVfDzqZk5LI96jKJt7I4ffEmuXkaKQGiVDHU16OWiw1VbExo6+WEhWn5mVii3IRRWNRlQiMv0sjDiWqONpgaG2KgryelX5QquXkaMrNzuXD1JodOXaKjtwttvZwkjHTF3hMJxCZk0NSzmpR2UbbK7pHz1KxqSdPaVSSMyrqtBy+TkJxLU08XKdmiTNp37AJOFY3w0/Eakk53YKdk5LLt0EUJIlGmNatXjZADF0nPypMwKqvCD1/Cq1ZVKc2izPPycCI86rKEUVmVkJRF9aoVpSSLMs/VsSLxSZkSRmXVmbibmBjpS0kWZZ6JsQGn425KGJVVeRot+nL7XugAQwM9cvN1+7k4eQJbCCFhJIQQEkZCCAkjIYSQMBJCSBgJIYSEUWmVt5MvGhlRy2MoO3Xtaf/c1bzvoo9Hi084mi+HWkgYCfHPa8CO0XT1rsOE4HTZGRJGQjw/StYNrlyK42aGIjtDwkiUeZpMnvhFcm0e+ZrHDIT8XPK1stsljEQpaV9cYu/PbzO0Qw28XU2p7VKRlq3aMeabTVzKvZMRR8bRyckIv/E7yC2cH6em0N3JkBYfBJF157OcSyHM/6A9AfVtqPdCFdr4dWL8jyFczikYBAf4qoUx9UesJSshhG8H1KGJW2t+P1e8VxS0l76lf1VTBsw/xrHfXqFbXSvqOJnQoJ4Hfd74jK1x939Uc3IK3ZzMeXv5UUImtcevpgV1nExpWL8er435noPXC/52MoGDzYvue0tbwlsuBniN3ECuksiKl82o+9pSMpRstr5jjbtzR5YlSg1JwkgU40yOZ/P7rRgy+TeO5rjRqvcw+vXuyAu5Uayf+RJDJm8nE9Cr0x2/qpCwbSMnHjgx8zkbFEiM1ha/Hm0wAfLO/Mg7Ad2Zs+okenW60r1XR6orR1jzRXf6vfY9ZwqnWeYBvn91AMuv1aDdgAE0sFH9lw3h2rrhjJgUirrpawx97306uWYTHfQl7w+ewtEHfjOPk9/25sNfDqBx86d77x7Ur3CdA3+M4vWe77EjqZghorLC+635TBvaDGOVAXUG/8jMrz+muZVKytdzJq+0l6V+jhsbWbHxMgZNvmT56o+obnDnL9LDmdLBn2Vb1nPq8zY0NvCifQdnFv22mfCTX+LV4M5hzo9my+ZTKLZDCGhuCtpYln8yjojUOry6dDNjW9miB5B/lZ2fBfDOwgl88UdnFr1R/d5VKzvse3YMWs3G6R2p+J8vZflcPHIV/7m7md23OoYA2rfxGuTFZzs3EHZ6MvU97xZNDfFxyTT5KJRyp2lZAAAHUElEQVSfRjXFUgVorrJzUjfeXfArX3zbn2ZTWmL02L9tTLXWA3HICmH6giPYN+3Piy9ZSOGSmpEoFqNmvPrtH3z75RBcDQp8blaTGo56KNmZZANgSL1OAdgqZwkPPcXdxozmzFq2nFaw69SHxsagiVnOmsgs7Pt9xQd3gwhA34FWYyfQziKTqA1BxN/rp1FAvxWvju7wBEF05yfqjOD9l+4EEYC6Ks1b1UZfySAz88Hajp7bW3z67p0gAtBzoNWEOfRygsvrlxGVJ0VDakbimVJZedLmRU8gn8zEM5y/cJ7LcWc5c2AlK/blgfX97xo27k7rKj+xcstGzo+uRw29fM4GreWsUpWBPVtgBKQeP0hsvhpXzrN19dJCLanLaC1UaM7/zUUNON4JArWzFx42T9qkUWNZ1wvnQqO7GBoZFfndis3bUNOgcAWnKb7NrVi69hjRV7Q0ryblQ8JIPEOZnF07kWkzf2dfXCoa9DCycqJa7fpUddDjelbBWlQL2rW15a8VG9keN5YazqfYEhQNTiPp3MgI0JKWnIxGyePU4rf4aPFDAtAinUwFuJM/KjNLzJ+4e0WFkbExj7cYNVbWNkVU4fWxrmiDWkkhJU1usUkYiWfZY0Ra2CiGjvyd1NqD+XTRW7RtWhdHKyNUShKrBzoTdbzg901o4t8R62XLCdt2kVdbBLLljELVN3tT3+B2IJiamaFSmdF5fjzfdjP9t26eOznyrDt6taTcuoUW0Cv0eeqtZBTVC5iZPnqdlLxc8uRmmfQZiZKSx+GN60lQ1ea1uT8zuGMjnKyMbtculGyyc/55tpk070HLCnkcD9nIrk1rOUsNOnZrdOcKpMKylicOejnEnIjmH29rZB1m7YxPmLM86k4/1POiJWnfdmIK9wvlHGT3vltgWZeajvdjStHkkluoopR35jjnZPJgCSNRgn1GKhUoWaSlFzwzs7gUNIU/I/NAUXggksxb075VBfIOfMf05afA9SU6e97vfNGr24+u7mrO/T6anw8l3/+3SgqHv3ubz7/7kai0CjzvCZY1Z35ixk8HSbu7gppE9swYzYo4sP9/e/cfE2UdwHH8fR53nMePBIQkCA6maEGEovxoo4wpWCJWOBVdNcbITSor0q2k1Whis8wZGFlsFBMop7nM6cgfRAykJGKtcObCEIQFA7MCgRPpn9yo2R+tLXiOz+vf++eee773vuf73PM83xWZxNkArNhsbjBwhsavx93iMfgdFbv20fUPMRq7rimepmny1y/FQD1ledkcvdmMwxxKyuZ84tMzCProHSqeWMqVVamEWvtpbzrGiVZvIhx2xtpOUbW7kluyMon2MwHeJD6YjOcnB2jvciMiL4N54/e4JYbs17ZQu76QokeiqV26nJhAE70tRznZ1IUt7lVeeDR8gn+xpuE7O5C215eQfnwJCRF2eltOcrq1BxxZ5Ofdz/Q/p6Wxy1LwOXKIfVn38vPqlUS4d/Nt9X7qOt3x8TQx/hpOk82OzTRCS0U+Jb33kPRYJlGeGoeKkTA2cp76/edv/qIlhpANW0m+bwelb3uyY8/H1JXv5IuAeUTGZVNctImoHwvI2bib2r0lxKStIdrPDJjwSkon3vMgx4ciWZYWxd+XJ/CIe5n3D8/l3TeLOVZfSdXQdAIckaQ8t5PcjRmE2yb+4D0gvYyS+Z+ybXsZ1Qd6ue4dTuz6LTy5OZc4/xv1NuH/8F7e+9WPNz6oprG8kM+GrzPNL57H92zGbfsaqsZ/pHE5bEhtoKSmlOJz3QSuXkuUpy58nNAjf1de3vqpXZ/z9Lqkqb2Hr1azNWEFh259hcPHXmS2gRZLGf2+gIdSCzE9c4ZDz9/Fv3rro4Nc7vkF88zb8La4xq58q7KOomcX68hIjGmg7kNO9Zq5MyeDsKm0apPZjk+gXQPAQHQC20U5h4dwXmmkdNdB+q3xpKXNQSvIiY6M5H82xIncmWw6MgQmG+HZL5ERasDfHTcPfPxnYfLQMFWMxKAszFuxibUzBvBflMm6VfF4GfDcrHluHuXf5Gl3KkZiXGbCVm6jYKU+CTEOnTMSEcVIREQxEhHFSEREMRIRxUhERDESEcVoolgtZpzX9FQtMb4R5yhWN9e+ocelYxQR4sfVoWsayWJ4g8MjzAn1VYyMapavjbZLfRrJYngXOvoI8nXtpxC4dIySFwTTfLZDI1kMr6m1k+SFwYqRUXnZraQsCqGh5YJGsxjW6ZYLLE904GGzuPR2uvSTHm/48mwP5zp+I/Fuh0a2GEpDSxuRjhksnOvv8ts6JWIEUNN8ieqv2llwx+2EBflit1mwWvS4MZlcRpyjDA6P8FPnZZpaL/JAgoPF84OmxLZPmRgB/H7VSU1zJ919g/xwsZ9hp/72l8nF3WImIsSXQD87ybHBLj81m7IxEpHJS1dgi4hiJCKiGImIYiQiohiJiGIkIqIYiYhiJCKiGImIYiQiohiJiGIkIqIYiYhiJCKiGImIYiQi8l/9ARGPPYSjStK2AAAAAElFTkSuQmCC;" vertex="1" parent="1">
          <mxGeometry x="1660" y="210" width="291" height="748" as="geometry" />
        </mxCell>
        <mxCell id="h_zZaRSQI0q3ezaPBLRO-23" value="" style="edgeStyle=orthogonalEdgeStyle;rounded=0;orthogonalLoop=1;jettySize=auto;html=1;fontSize=20;" edge="1" parent="1" source="h_zZaRSQI0q3ezaPBLRO-13" target="h_zZaRSQI0q3ezaPBLRO-14">
          <mxGeometry relative="1" as="geometry" />
        </mxCell>
        <mxCell id="h_zZaRSQI0q3ezaPBLRO-13" value="&lt;font style=&quot;font-size: 20px;&quot;&gt;Matmul&lt;/font&gt;" style="rounded=1;whiteSpace=wrap;html=1;fillColor=#dae8fc;strokeColor=#6c8ebf;" vertex="1" parent="1">
          <mxGeometry x="435" y="1430" width="165" height="60" as="geometry" />
        </mxCell>
        <mxCell id="h_zZaRSQI0q3ezaPBLRO-24" value="" style="edgeStyle=orthogonalEdgeStyle;rounded=0;orthogonalLoop=1;jettySize=auto;html=1;fontSize=20;" edge="1" parent="1" source="h_zZaRSQI0q3ezaPBLRO-14" target="h_zZaRSQI0q3ezaPBLRO-15">
          <mxGeometry relative="1" as="geometry" />
        </mxCell>
        <mxCell id="h_zZaRSQI0q3ezaPBLRO-14" value="&lt;font style=&quot;font-size: 20px;&quot;&gt;Scale&lt;/font&gt;" style="rounded=1;whiteSpace=wrap;html=1;fillColor=#fff2cc;strokeColor=#d6b656;" vertex="1" parent="1">
          <mxGeometry x="432.5" y="1340" width="165" height="60" as="geometry" />
        </mxCell>
        <mxCell id="h_zZaRSQI0q3ezaPBLRO-25" value="" style="edgeStyle=orthogonalEdgeStyle;rounded=0;orthogonalLoop=1;jettySize=auto;html=1;fontSize=20;" edge="1" parent="1" source="h_zZaRSQI0q3ezaPBLRO-15" target="h_zZaRSQI0q3ezaPBLRO-16">
          <mxGeometry relative="1" as="geometry" />
        </mxCell>
        <mxCell id="h_zZaRSQI0q3ezaPBLRO-15" value="&lt;font style=&quot;font-size: 20px;&quot;&gt;Mask (Optional)&lt;br&gt;&lt;/font&gt;" style="rounded=1;whiteSpace=wrap;html=1;fillColor=#f8cecc;strokeColor=#b85450;" vertex="1" parent="1">
          <mxGeometry x="432.5" y="1240" width="165" height="60" as="geometry" />
        </mxCell>
        <mxCell id="h_zZaRSQI0q3ezaPBLRO-28" style="edgeStyle=orthogonalEdgeStyle;rounded=0;orthogonalLoop=1;jettySize=auto;html=1;exitX=0.5;exitY=0;exitDx=0;exitDy=0;entryX=0.25;entryY=1;entryDx=0;entryDy=0;fontSize=20;" edge="1" parent="1" source="h_zZaRSQI0q3ezaPBLRO-16" target="h_zZaRSQI0q3ezaPBLRO-17">
          <mxGeometry relative="1" as="geometry" />
        </mxCell>
        <mxCell id="h_zZaRSQI0q3ezaPBLRO-16" value="&lt;font style=&quot;font-size: 20px;&quot;&gt;Softmax&lt;/font&gt;" style="rounded=1;whiteSpace=wrap;html=1;fillColor=#d5e8d4;strokeColor=#82b366;" vertex="1" parent="1">
          <mxGeometry x="432.5" y="1140" width="165" height="60" as="geometry" />
        </mxCell>
        <mxCell id="h_zZaRSQI0q3ezaPBLRO-17" value="&lt;font style=&quot;font-size: 20px;&quot;&gt;Matmul&lt;/font&gt;" style="rounded=1;whiteSpace=wrap;html=1;fillColor=#dae8fc;strokeColor=#6c8ebf;" vertex="1" parent="1">
          <mxGeometry x="562.5" y="1030" width="165" height="60" as="geometry" />
        </mxCell>
        <mxCell id="h_zZaRSQI0q3ezaPBLRO-21" style="edgeStyle=orthogonalEdgeStyle;rounded=0;orthogonalLoop=1;jettySize=auto;html=1;exitX=0.5;exitY=0;exitDx=0;exitDy=0;entryX=0.212;entryY=1;entryDx=0;entryDy=0;entryPerimeter=0;fontSize=20;" edge="1" parent="1" source="h_zZaRSQI0q3ezaPBLRO-18" target="h_zZaRSQI0q3ezaPBLRO-13">
          <mxGeometry relative="1" as="geometry" />
        </mxCell>
        <mxCell id="h_zZaRSQI0q3ezaPBLRO-18" value="&lt;font style=&quot;font-size: 20px;&quot;&gt;Q&lt;/font&gt;" style="text;html=1;strokeColor=none;fillColor=none;align=center;verticalAlign=middle;whiteSpace=wrap;rounded=0;" vertex="1" parent="1">
          <mxGeometry x="440" y="1520" width="60" height="30" as="geometry" />
        </mxCell>
        <mxCell id="h_zZaRSQI0q3ezaPBLRO-22" style="edgeStyle=orthogonalEdgeStyle;rounded=0;orthogonalLoop=1;jettySize=auto;html=1;exitX=0.5;exitY=0;exitDx=0;exitDy=0;entryX=0.75;entryY=1;entryDx=0;entryDy=0;fontSize=20;" edge="1" parent="1" source="h_zZaRSQI0q3ezaPBLRO-19" target="h_zZaRSQI0q3ezaPBLRO-13">
          <mxGeometry relative="1" as="geometry" />
        </mxCell>
        <mxCell id="h_zZaRSQI0q3ezaPBLRO-19" value="&lt;font style=&quot;font-size: 20px;&quot;&gt;K&lt;/font&gt;" style="text;html=1;strokeColor=none;fillColor=none;align=center;verticalAlign=middle;whiteSpace=wrap;rounded=0;" vertex="1" parent="1">
          <mxGeometry x="529" y="1520" width="60" height="30" as="geometry" />
        </mxCell>
        <mxCell id="h_zZaRSQI0q3ezaPBLRO-27" style="edgeStyle=orthogonalEdgeStyle;rounded=0;orthogonalLoop=1;jettySize=auto;html=1;exitX=0.5;exitY=0;exitDx=0;exitDy=0;entryX=0.75;entryY=1;entryDx=0;entryDy=0;fontSize=20;" edge="1" parent="1" source="h_zZaRSQI0q3ezaPBLRO-20" target="h_zZaRSQI0q3ezaPBLRO-17">
          <mxGeometry relative="1" as="geometry">
            <Array as="points">
              <mxPoint x="686" y="1520" />
            </Array>
          </mxGeometry>
        </mxCell>
        <mxCell id="h_zZaRSQI0q3ezaPBLRO-20" value="&lt;font style=&quot;font-size: 20px;&quot;&gt;V&lt;/font&gt;" style="text;html=1;strokeColor=none;fillColor=none;align=center;verticalAlign=middle;whiteSpace=wrap;rounded=0;" vertex="1" parent="1">
          <mxGeometry x="657" y="1520" width="60" height="30" as="geometry" />
        </mxCell>
        <mxCell id="h_zZaRSQI0q3ezaPBLRO-29" value="Y&lt;sub&gt;0&lt;/sub&gt;" style="ellipse;whiteSpace=wrap;html=1;aspect=fixed;fontSize=20;fillColor=#dae8fc;strokeColor=#6c8ebf;" vertex="1" parent="1">
          <mxGeometry x="951" y="1120" width="80" height="80" as="geometry" />
        </mxCell>
        <mxCell id="h_zZaRSQI0q3ezaPBLRO-33" value="" style="edgeStyle=orthogonalEdgeStyle;rounded=0;orthogonalLoop=1;jettySize=auto;html=1;fontSize=20;" edge="1" parent="1" source="h_zZaRSQI0q3ezaPBLRO-30" target="h_zZaRSQI0q3ezaPBLRO-31">
          <mxGeometry relative="1" as="geometry" />
        </mxCell>
        <mxCell id="h_zZaRSQI0q3ezaPBLRO-30" value="X&lt;sub&gt;0&lt;/sub&gt;" style="ellipse;whiteSpace=wrap;html=1;aspect=fixed;fontSize=20;fillColor=#f8cecc;strokeColor=#b85450;" vertex="1" parent="1">
          <mxGeometry x="951" y="1380" width="80" height="80" as="geometry" />
        </mxCell>
        <mxCell id="h_zZaRSQI0q3ezaPBLRO-32" value="" style="edgeStyle=orthogonalEdgeStyle;rounded=0;orthogonalLoop=1;jettySize=auto;html=1;fontSize=20;" edge="1" parent="1" source="h_zZaRSQI0q3ezaPBLRO-31" target="h_zZaRSQI0q3ezaPBLRO-29">
          <mxGeometry relative="1" as="geometry" />
        </mxCell>
        <mxCell id="h_zZaRSQI0q3ezaPBLRO-49" style="edgeStyle=orthogonalEdgeStyle;rounded=0;orthogonalLoop=1;jettySize=auto;html=1;exitX=1;exitY=0.5;exitDx=0;exitDy=0;entryX=0;entryY=0.5;entryDx=0;entryDy=0;fontSize=20;" edge="1" parent="1" source="h_zZaRSQI0q3ezaPBLRO-31" target="h_zZaRSQI0q3ezaPBLRO-38">
          <mxGeometry relative="1" as="geometry" />
        </mxCell>
        <mxCell id="h_zZaRSQI0q3ezaPBLRO-31" value="&lt;div&gt;&lt;sub&gt;Hidden&lt;/sub&gt;&lt;/div&gt;&lt;div&gt;&lt;sub&gt;Layer&lt;br&gt;&lt;/sub&gt;&lt;/div&gt;" style="ellipse;whiteSpace=wrap;html=1;aspect=fixed;fontSize=20;fillColor=#d5e8d4;strokeColor=#82b366;" vertex="1" parent="1">
          <mxGeometry x="941" y="1240" width="100" height="100" as="geometry" />
        </mxCell>
        <mxCell id="h_zZaRSQI0q3ezaPBLRO-34" value="Y&lt;sub&gt;1&lt;/sub&gt;" style="ellipse;whiteSpace=wrap;html=1;aspect=fixed;fontSize=20;fillColor=#dae8fc;strokeColor=#6c8ebf;" vertex="1" parent="1">
          <mxGeometry x="1090" y="1120" width="80" height="80" as="geometry" />
        </mxCell>
        <mxCell id="h_zZaRSQI0q3ezaPBLRO-35" value="" style="edgeStyle=orthogonalEdgeStyle;rounded=0;orthogonalLoop=1;jettySize=auto;html=1;fontSize=20;" edge="1" parent="1" source="h_zZaRSQI0q3ezaPBLRO-36" target="h_zZaRSQI0q3ezaPBLRO-38">
          <mxGeometry relative="1" as="geometry" />
        </mxCell>
        <mxCell id="h_zZaRSQI0q3ezaPBLRO-36" value="X&lt;sub&gt;1&lt;/sub&gt;" style="ellipse;whiteSpace=wrap;html=1;aspect=fixed;fontSize=20;fillColor=#f8cecc;strokeColor=#b85450;" vertex="1" parent="1">
          <mxGeometry x="1090" y="1380" width="80" height="80" as="geometry" />
        </mxCell>
        <mxCell id="h_zZaRSQI0q3ezaPBLRO-37" value="" style="edgeStyle=orthogonalEdgeStyle;rounded=0;orthogonalLoop=1;jettySize=auto;html=1;fontSize=20;" edge="1" parent="1" source="h_zZaRSQI0q3ezaPBLRO-38" target="h_zZaRSQI0q3ezaPBLRO-34">
          <mxGeometry relative="1" as="geometry" />
        </mxCell>
        <mxCell id="h_zZaRSQI0q3ezaPBLRO-50" style="edgeStyle=orthogonalEdgeStyle;rounded=0;orthogonalLoop=1;jettySize=auto;html=1;exitX=1;exitY=0.5;exitDx=0;exitDy=0;entryX=0;entryY=0.5;entryDx=0;entryDy=0;fontSize=20;" edge="1" parent="1" source="h_zZaRSQI0q3ezaPBLRO-38" target="h_zZaRSQI0q3ezaPBLRO-48">
          <mxGeometry relative="1" as="geometry" />
        </mxCell>
        <mxCell id="h_zZaRSQI0q3ezaPBLRO-38" value="&lt;div&gt;&lt;sub&gt;Hidden&lt;/sub&gt;&lt;/div&gt;&lt;div&gt;&lt;sub&gt;Layer&lt;br&gt;&lt;/sub&gt;&lt;/div&gt;" style="ellipse;whiteSpace=wrap;html=1;aspect=fixed;fontSize=20;fillColor=#d5e8d4;strokeColor=#82b366;" vertex="1" parent="1">
          <mxGeometry x="1080" y="1240" width="100" height="100" as="geometry" />
        </mxCell>
        <mxCell id="h_zZaRSQI0q3ezaPBLRO-44" value="Y&lt;sub&gt;2&lt;/sub&gt;" style="ellipse;whiteSpace=wrap;html=1;aspect=fixed;fontSize=20;fillColor=#dae8fc;strokeColor=#6c8ebf;" vertex="1" parent="1">
          <mxGeometry x="1220" y="1120" width="80" height="80" as="geometry" />
        </mxCell>
        <mxCell id="h_zZaRSQI0q3ezaPBLRO-45" value="" style="edgeStyle=orthogonalEdgeStyle;rounded=0;orthogonalLoop=1;jettySize=auto;html=1;fontSize=20;" edge="1" parent="1" source="h_zZaRSQI0q3ezaPBLRO-46" target="h_zZaRSQI0q3ezaPBLRO-48">
          <mxGeometry relative="1" as="geometry" />
        </mxCell>
        <mxCell id="h_zZaRSQI0q3ezaPBLRO-46" value="X&lt;sub&gt;2&lt;/sub&gt;" style="ellipse;whiteSpace=wrap;html=1;aspect=fixed;fontSize=20;fillColor=#f8cecc;strokeColor=#b85450;" vertex="1" parent="1">
          <mxGeometry x="1220" y="1380" width="80" height="80" as="geometry" />
        </mxCell>
        <mxCell id="h_zZaRSQI0q3ezaPBLRO-47" value="" style="edgeStyle=orthogonalEdgeStyle;rounded=0;orthogonalLoop=1;jettySize=auto;html=1;fontSize=20;" edge="1" parent="1" source="h_zZaRSQI0q3ezaPBLRO-48" target="h_zZaRSQI0q3ezaPBLRO-44">
          <mxGeometry relative="1" as="geometry" />
        </mxCell>
        <mxCell id="h_zZaRSQI0q3ezaPBLRO-52" style="edgeStyle=orthogonalEdgeStyle;rounded=0;orthogonalLoop=1;jettySize=auto;html=1;exitX=1;exitY=0.5;exitDx=0;exitDy=0;fontSize=20;" edge="1" parent="1" source="h_zZaRSQI0q3ezaPBLRO-48">
          <mxGeometry relative="1" as="geometry">
            <mxPoint x="1330" y="1290" as="targetPoint" />
          </mxGeometry>
        </mxCell>
        <mxCell id="h_zZaRSQI0q3ezaPBLRO-48" value="&lt;div&gt;&lt;sub&gt;Hidden&lt;/sub&gt;&lt;/div&gt;&lt;div&gt;&lt;sub&gt;Layer&lt;br&gt;&lt;/sub&gt;&lt;/div&gt;" style="ellipse;whiteSpace=wrap;html=1;aspect=fixed;fontSize=20;fillColor=#d5e8d4;strokeColor=#82b366;" vertex="1" parent="1">
          <mxGeometry x="1210" y="1240" width="100" height="100" as="geometry" />
        </mxCell>
        <mxCell id="h_zZaRSQI0q3ezaPBLRO-61" style="edgeStyle=orthogonalEdgeStyle;rounded=0;orthogonalLoop=1;jettySize=auto;html=1;exitX=1;exitY=0.5;exitDx=0;exitDy=0;entryX=0;entryY=0.5;entryDx=0;entryDy=0;fontSize=20;endArrow=none;endFill=0;" edge="1" parent="1" source="h_zZaRSQI0q3ezaPBLRO-55" target="h_zZaRSQI0q3ezaPBLRO-57">
          <mxGeometry relative="1" as="geometry" />
        </mxCell>
        <mxCell id="h_zZaRSQI0q3ezaPBLRO-53" value="&lt;font style=&quot;font-size: 20px;&quot;&gt;Hôm&lt;/font&gt;" style="rounded=1;whiteSpace=wrap;html=1;fillColor=none;strokeColor=none;" vertex="1" parent="1">
          <mxGeometry x="440" y="1730" width="165" height="60" as="geometry" />
        </mxCell>
        <mxCell id="h_zZaRSQI0q3ezaPBLRO-54" value="&lt;font style=&quot;font-size: 20px;&quot;&gt;nay&lt;/font&gt;" style="rounded=1;whiteSpace=wrap;html=1;fillColor=#FFFFFF;strokeColor=none;" vertex="1" parent="1">
          <mxGeometry x="440" y="1830" width="165" height="60" as="geometry" />
        </mxCell>
        <mxCell id="h_zZaRSQI0q3ezaPBLRO-64" style="edgeStyle=orthogonalEdgeStyle;rounded=0;orthogonalLoop=1;jettySize=auto;html=1;exitX=1;exitY=0.5;exitDx=0;exitDy=0;entryX=0;entryY=0.5;entryDx=0;entryDy=0;fontSize=20;endArrow=none;endFill=0;" edge="1" parent="1" source="h_zZaRSQI0q3ezaPBLRO-55" target="h_zZaRSQI0q3ezaPBLRO-59">
          <mxGeometry relative="1" as="geometry" />
        </mxCell>
        <mxCell id="h_zZaRSQI0q3ezaPBLRO-65" style="edgeStyle=orthogonalEdgeStyle;rounded=0;orthogonalLoop=1;jettySize=auto;html=1;exitX=1;exitY=0.5;exitDx=0;exitDy=0;entryX=0;entryY=0.5;entryDx=0;entryDy=0;fontSize=20;endArrow=none;endFill=0;" edge="1" parent="1" source="h_zZaRSQI0q3ezaPBLRO-55" target="h_zZaRSQI0q3ezaPBLRO-60">
          <mxGeometry relative="1" as="geometry" />
        </mxCell>
        <mxCell id="h_zZaRSQI0q3ezaPBLRO-66" style="edgeStyle=orthogonalEdgeStyle;rounded=0;orthogonalLoop=1;jettySize=auto;html=1;exitX=1;exitY=0.5;exitDx=0;exitDy=0;entryX=0;entryY=0.5;entryDx=0;entryDy=0;fontSize=20;endArrow=none;endFill=0;" edge="1" parent="1" source="h_zZaRSQI0q3ezaPBLRO-55" target="h_zZaRSQI0q3ezaPBLRO-58">
          <mxGeometry relative="1" as="geometry" />
        </mxCell>
        <mxCell id="h_zZaRSQI0q3ezaPBLRO-55" value="&lt;font style=&quot;font-size: 20px;&quot;&gt;trời&lt;/font&gt;" style="rounded=1;whiteSpace=wrap;html=1;fillColor=none;strokeColor=none;" vertex="1" parent="1">
          <mxGeometry x="440" y="1930" width="165" height="60" as="geometry" />
        </mxCell>
        <mxCell id="h_zZaRSQI0q3ezaPBLRO-56" value="&lt;font style=&quot;font-size: 20px;&quot;&gt;mưa&lt;/font&gt;" style="rounded=1;whiteSpace=wrap;html=1;fillColor=none;strokeColor=none;" vertex="1" parent="1">
          <mxGeometry x="440" y="2030" width="165" height="60" as="geometry" />
        </mxCell>
        <mxCell id="h_zZaRSQI0q3ezaPBLRO-57" value="&lt;font style=&quot;font-size: 20px;&quot;&gt;Hôm&lt;/font&gt;" style="rounded=1;whiteSpace=wrap;html=1;fillColor=#BACEFC;strokeColor=#000000;" vertex="1" parent="1">
          <mxGeometry x="750" y="1730" width="165" height="60" as="geometry" />
        </mxCell>
        <mxCell id="h_zZaRSQI0q3ezaPBLRO-58" value="&lt;font style=&quot;font-size: 20px;&quot;&gt;nay&lt;/font&gt;" style="rounded=1;whiteSpace=wrap;html=1;fillColor=#CFEFFF;strokeColor=default;" vertex="1" parent="1">
          <mxGeometry x="750" y="1830" width="165" height="60" as="geometry" />
        </mxCell>
        <mxCell id="h_zZaRSQI0q3ezaPBLRO-59" value="&lt;font style=&quot;font-size: 20px;&quot;&gt;trời&lt;/font&gt;" style="rounded=1;whiteSpace=wrap;html=1;fillColor=#EDF7FF;strokeColor=default;" vertex="1" parent="1">
          <mxGeometry x="750" y="1930" width="165" height="60" as="geometry" />
        </mxCell>
        <mxCell id="h_zZaRSQI0q3ezaPBLRO-60" value="&lt;font style=&quot;font-size: 20px;&quot;&gt;mưa&lt;/font&gt;" style="rounded=1;whiteSpace=wrap;html=1;fillColor=#B5D3FF;strokeColor=default;" vertex="1" parent="1">
          <mxGeometry x="750" y="2030" width="165" height="60" as="geometry" />
        </mxCell>
        <mxCell id="h_zZaRSQI0q3ezaPBLRO-72" value="" style="edgeStyle=orthogonalEdgeStyle;rounded=0;orthogonalLoop=1;jettySize=auto;html=1;fontSize=20;endArrow=classic;endFill=1;" edge="1" parent="1" source="h_zZaRSQI0q3ezaPBLRO-68" target="h_zZaRSQI0q3ezaPBLRO-69">
          <mxGeometry relative="1" as="geometry" />
        </mxCell>
        <mxCell id="h_zZaRSQI0q3ezaPBLRO-68" value="&lt;font style=&quot;font-size: 20px;&quot;&gt;Dataset&lt;/font&gt;" style="rounded=1;whiteSpace=wrap;html=1;fillColor=#fff2cc;strokeColor=#d6b656;" vertex="1" parent="1">
          <mxGeometry x="1005" y="1830" width="165" height="60" as="geometry" />
        </mxCell>
        <mxCell id="h_zZaRSQI0q3ezaPBLRO-73" value="" style="edgeStyle=orthogonalEdgeStyle;rounded=0;orthogonalLoop=1;jettySize=auto;html=1;fontSize=20;endArrow=classicThin;endFill=1;" edge="1" parent="1" source="h_zZaRSQI0q3ezaPBLRO-69" target="h_zZaRSQI0q3ezaPBLRO-70">
          <mxGeometry relative="1" as="geometry" />
        </mxCell>
        <mxCell id="h_zZaRSQI0q3ezaPBLRO-69" value="&lt;font style=&quot;font-size: 20px;&quot;&gt;Vietnamese Segmentation&lt;br&gt;&lt;/font&gt;" style="rounded=1;whiteSpace=wrap;html=1;fillColor=#ffe6cc;strokeColor=#d79b00;" vertex="1" parent="1">
          <mxGeometry x="1200" y="1830" width="165" height="60" as="geometry" />
        </mxCell>
        <mxCell id="h_zZaRSQI0q3ezaPBLRO-74" value="" style="edgeStyle=orthogonalEdgeStyle;rounded=0;orthogonalLoop=1;jettySize=auto;html=1;fontSize=20;endArrow=classicThin;endFill=1;" edge="1" parent="1" source="h_zZaRSQI0q3ezaPBLRO-70" target="h_zZaRSQI0q3ezaPBLRO-71">
          <mxGeometry relative="1" as="geometry" />
        </mxCell>
        <mxCell id="h_zZaRSQI0q3ezaPBLRO-70" value="&lt;div&gt;&lt;font style=&quot;font-size: 20px;&quot;&gt;SentencePiece&lt;br&gt;&lt;/font&gt;&lt;/div&gt;&lt;div&gt;&lt;font style=&quot;font-size: 20px;&quot;&gt;Tokenizer&lt;/font&gt;&lt;/div&gt;" style="rounded=1;whiteSpace=wrap;html=1;fillColor=#f8cecc;strokeColor=#b85450;" vertex="1" parent="1">
          <mxGeometry x="1400" y="1830" width="165" height="60" as="geometry" />
        </mxCell>
        <mxCell id="h_zZaRSQI0q3ezaPBLRO-71" value="&lt;font style=&quot;font-size: 20px;&quot;&gt;Pre-train DeBERTa&lt;br&gt;&lt;/font&gt;" style="rounded=1;whiteSpace=wrap;html=1;fillColor=#e1d5e7;strokeColor=#9673a6;" vertex="1" parent="1">
          <mxGeometry x="1600" y="1830" width="165" height="60" as="geometry" />
        </mxCell>
        <mxCell id="h_zZaRSQI0q3ezaPBLRO-82" value="" style="edgeStyle=orthogonalEdgeStyle;rounded=0;orthogonalLoop=1;jettySize=auto;html=1;fontSize=20;endArrow=classicThin;endFill=1;" edge="1" parent="1" source="h_zZaRSQI0q3ezaPBLRO-76" target="h_zZaRSQI0q3ezaPBLRO-77">
          <mxGeometry relative="1" as="geometry" />
        </mxCell>
        <mxCell id="h_zZaRSQI0q3ezaPBLRO-76" value="&lt;font style=&quot;font-size: 20px;&quot;&gt;Input Sequence&lt;br&gt;&lt;/font&gt;" style="rounded=1;whiteSpace=wrap;html=1;fillColor=#fff2cc;strokeColor=#d6b656;" vertex="1" parent="1">
          <mxGeometry x="1005" y="2000" width="165" height="60" as="geometry" />
        </mxCell>
        <mxCell id="h_zZaRSQI0q3ezaPBLRO-83" value="" style="edgeStyle=orthogonalEdgeStyle;rounded=0;orthogonalLoop=1;jettySize=auto;html=1;fontSize=20;endArrow=classicThin;endFill=1;" edge="1" parent="1" source="h_zZaRSQI0q3ezaPBLRO-77" target="h_zZaRSQI0q3ezaPBLRO-78">
          <mxGeometry relative="1" as="geometry" />
        </mxCell>
        <mxCell id="h_zZaRSQI0q3ezaPBLRO-77" value="&lt;font style=&quot;font-size: 20px;&quot;&gt;Mask Tokens&lt;br&gt;&lt;/font&gt;" style="rounded=1;whiteSpace=wrap;html=1;fillColor=#dae8fc;strokeColor=#6c8ebf;" vertex="1" parent="1">
          <mxGeometry x="1200" y="2000" width="165" height="60" as="geometry" />
        </mxCell>
        <mxCell id="h_zZaRSQI0q3ezaPBLRO-84" value="" style="edgeStyle=orthogonalEdgeStyle;rounded=0;orthogonalLoop=1;jettySize=auto;html=1;fontSize=20;endArrow=classicThin;endFill=1;" edge="1" parent="1" source="h_zZaRSQI0q3ezaPBLRO-78" target="h_zZaRSQI0q3ezaPBLRO-80">
          <mxGeometry relative="1" as="geometry" />
        </mxCell>
        <mxCell id="h_zZaRSQI0q3ezaPBLRO-78" value="&lt;font style=&quot;font-size: 20px;&quot;&gt;Generator&lt;br&gt;&lt;/font&gt;" style="rounded=1;whiteSpace=wrap;html=1;fillColor=#f8cecc;strokeColor=#b85450;" vertex="1" parent="1">
          <mxGeometry x="1400" y="2000" width="165" height="60" as="geometry" />
        </mxCell>
        <mxCell id="h_zZaRSQI0q3ezaPBLRO-86" value="" style="edgeStyle=orthogonalEdgeStyle;rounded=0;orthogonalLoop=1;jettySize=auto;html=1;fontSize=20;endArrow=classicThin;endFill=1;" edge="1" parent="1" source="h_zZaRSQI0q3ezaPBLRO-79" target="h_zZaRSQI0q3ezaPBLRO-81">
          <mxGeometry relative="1" as="geometry" />
        </mxCell>
        <mxCell id="h_zZaRSQI0q3ezaPBLRO-79" value="&lt;font style=&quot;font-size: 20px;&quot;&gt;Discriminator&lt;/font&gt;" style="rounded=1;whiteSpace=wrap;html=1;fillColor=#f8cecc;strokeColor=#b85450;" vertex="1" parent="1">
          <mxGeometry x="1786" y="2000" width="165" height="60" as="geometry" />
        </mxCell>
        <mxCell id="h_zZaRSQI0q3ezaPBLRO-85" value="" style="edgeStyle=orthogonalEdgeStyle;rounded=0;orthogonalLoop=1;jettySize=auto;html=1;fontSize=20;endArrow=classicThin;endFill=1;" edge="1" parent="1" source="h_zZaRSQI0q3ezaPBLRO-80" target="h_zZaRSQI0q3ezaPBLRO-79">
          <mxGeometry relative="1" as="geometry" />
        </mxCell>
        <mxCell id="h_zZaRSQI0q3ezaPBLRO-80" value="&lt;font style=&quot;font-size: 20px;&quot;&gt;MLM&lt;br&gt;&lt;/font&gt;" style="rounded=1;whiteSpace=wrap;html=1;fillColor=#d5e8d4;strokeColor=#82b366;" vertex="1" parent="1">
          <mxGeometry x="1590" y="2000" width="165" height="60" as="geometry" />
        </mxCell>
        <mxCell id="h_zZaRSQI0q3ezaPBLRO-81" value="&lt;font style=&quot;font-size: 20px;&quot;&gt;RTD&lt;/font&gt;" style="rounded=1;whiteSpace=wrap;html=1;fillColor=#d5e8d4;strokeColor=#82b366;" vertex="1" parent="1">
          <mxGeometry x="1980" y="2000" width="165" height="60" as="geometry" />
        </mxCell>
      </root>
    </mxGraphModel>
  </diagram>
</mxfile>
